<?xml version="1.0" encoding="UTF-8" standalone="no"?>
<!-- Created with Inkscape (http://www.inkscape.org/) -->

<svg
   xmlns:dc="http://purl.org/dc/elements/1.1/"
   xmlns:cc="http://creativecommons.org/ns#"
   xmlns:rdf="http://www.w3.org/1999/02/22-rdf-syntax-ns#"
   xmlns:svg="http://www.w3.org/2000/svg"
   xmlns="http://www.w3.org/2000/svg"
   xmlns:sodipodi="http://sodipodi.sourceforge.net/DTD/sodipodi-0.dtd"
   xmlns:inkscape="http://www.inkscape.org/namespaces/inkscape"
   width="3900"
   height="402"
   viewBox="0 0 1031.875 106.3625"
   version="1.1"
   id="svg8"
   inkscape:version="0.92.2 (5c3e80d, 2017-08-06)"
   sodipodi:docname="TalesOfTheTavern.svg">
  <defs
     id="defs2" />
  <sodipodi:namedview
     id="base"
     pagecolor="#ffffff"
     bordercolor="#666666"
     borderopacity="1.0"
     inkscape:pageopacity="0.0"
     inkscape:pageshadow="2"
     inkscape:zoom="0.24748737"
     inkscape:cx="1727.2527"
     inkscape:cy="-808.77901"
     inkscape:document-units="mm"
     inkscape:current-layer="layer1"
     showgrid="false"
     units="px"
     inkscape:window-width="1920"
     inkscape:window-height="1017"
     inkscape:window-x="1672"
     inkscape:window-y="-8"
     inkscape:window-maximized="1" />
  <metadata
     id="metadata5">
    <rdf:RDF>
      <cc:Work
         rdf:about="">
        <dc:format>image/svg+xml</dc:format>
        <dc:type
           rdf:resource="http://purl.org/dc/dcmitype/StillImage" />
        <dc:title />
      </cc:Work>
    </rdf:RDF>
  </metadata>
  <g
     inkscape:label="Calque 1"
     inkscape:groupmode="layer"
     id="layer1"
     transform="translate(0,-190.63748)">
    <path
       inkscape:connector-curvature="0"
       id="path854"
       d="m 731.04375,295.41248 h -2.38125 v -0.79375 -0.79375 h -0.79375 -0.79375 v -2.38125 -2.38125 h -0.79375 -0.79375 v -2.38125 -2.38125 H 724.69375 723.9 v -2.38125 -2.38125 h -0.79375 -0.79375 v -2.38125 -2.38125 h -0.79375 -0.79375 v -2.38125 -2.38125 h -0.79375 -0.79375 v -2.38125 -2.38125 H 718.34375 717.55 v -2.38125 -2.38125 h -0.79375 -0.79375 v -2.38125 -2.38125 h -0.79375 -0.79375 v -2.38125 -2.38125 h -0.79375 -0.79375 v -2.38125 -2.38125 H 711.99375 711.2 v -2.38125 -2.38125 h -0.79375 -0.79375 v -2.38125 -2.38125 h -0.79375 -0.79375 v -2.38125 -2.38125 h -0.79375 -0.79375 v -2.38125 -2.38125 H 705.64375 704.85 v -2.38125 -2.38125 h -0.79375 -0.79375 v -2.38125 -2.38125 h -0.79375 -0.79375 v -2.38125 -2.38125 h -0.79375 -0.79375 v -2.38125 -2.38125 H 699.29375 698.5 v -3.175 -3.175 h 0.79375 0.79375 v -0.79375 -0.79375 h 2.38125 2.38125 v -0.79375 -0.79375 h 2.38125 2.38125 v -0.79375 -0.79375 h 2.38125 2.38125 v -0.79375 -0.79375 h 2.38125 2.38125 v 0.79375 0.79375 h 0.79375 0.79375 v 2.38125 2.38125 h 0.79375 0.79375 v 2.38125 2.38125 h 0.79375 0.79375 v 2.38125 2.38125 h 0.79375 0.79375 v 2.38125 2.38125 h 0.79375 0.79375 v 2.38125 2.38125 h 0.79375 0.79375 v 2.38125 2.38125 h 0.79375 0.79375 v 2.38125 2.38125 h 0.79375 0.79375 v 2.38125 2.38125 h 0.79375 0.79375 v 2.38125 2.38125 h 0.79375 0.79375 v 2.38125 2.38125 h 0.79375 0.79375 v 2.38125 2.38125 h 0.79375 0.79375 v 2.38125 2.38125 h 0.79375 0.79375 v 2.38125 2.38125 h 0.79375 0.79375 v -2.38125 -2.38125 h 0.79375 0.79375 v -2.38125 -2.38125 h 0.79375 0.79375 v -2.38125 -2.38125 h 0.79375 0.79375 v -2.38125 -2.38125 h 0.79375 0.79375 v -2.38125 -2.38125 h 0.79375 0.79375 v -2.38125 -2.38125 h 0.79375 0.79375 v -2.38125 -2.38125 h 0.79375 0.79375 v -2.38125 -2.38125 h 0.79375 0.79375 v -2.38125 -2.38125 h 0.79375 0.79375 v -2.38125 -2.38125 h 0.79375 0.79375 v -2.38125 -2.38125 h 0.79375 0.79375 v -2.38125 -2.38125 h 0.79375 0.79375 v -2.38125 -2.38125 H 761.20625 762 v -0.79375 -0.79375 h 2.38125 2.38125 v 0.79375 0.79375 h 0.79375 0.79375 v 1.5875 1.5875 h 1.5875 1.5875 v 0.79375 0.79375 h 1.5875 1.5875 v -0.79375 -0.79375 h 3.175 3.175 v 0.79375 0.79375 h 0.79375 0.79375 v 3.175 3.175 H 781.84375 781.05 v 2.38125 2.38125 h -0.79375 -0.79375 v 2.38125 2.38125 h -0.79375 -0.79375 v 2.38125 2.38125 h -0.79375 -0.79375 v 2.38125 2.38125 H 775.49375 774.7 v 2.38125 2.38125 h -0.79375 -0.79375 v 2.38125 2.38125 h -0.79375 -0.79375 v 2.38125 2.38125 h -0.79375 -0.79375 v 2.38125 2.38125 H 769.14375 768.35 v 2.38125 2.38125 h -0.79375 -0.79375 v 2.38125 2.38125 h -0.79375 -0.79375 v 2.38125 2.38125 h -0.79375 -0.79375 v 2.38125 2.38125 H 762.79375 762 v 2.38125 2.38125 h -0.79375 -0.79375 v 2.38125 2.38125 h -0.79375 -0.79375 v 2.38125 2.38125 h -0.79375 -0.79375 v 2.38125 2.38125 H 756.44375 755.65 v 2.38125 2.38125 h -0.79375 -0.79375 v 2.38125 2.38125 h -0.79375 -0.79375 v 0.79375 0.79375 h -2.38125 -2.38125 v -0.79375 -0.79375 H 745.33125 742.95 v -0.79375 -0.79375 h -0.79375 -0.79375 v -0.79375 -0.79375 h -1.5875 -1.5875 v 1.5875 1.5875 h -2.38125 -2.38125 v 0.79375 0.79375 z m -698.5,-1.5875 H 30.1625 v -39.6875 -39.6875 H 15.875 1.5875 v -7.9375 -7.9375 H 2.38125 3.175 v -0.79375 -0.79375 H 2.38125 1.5875 v -2.38125 -2.38125 H 41.275 80.9625 v 11.1125 11.1125 H 65.88125 50.8 v 39.6875 39.6875 H 44.45 38.1 v -0.79375 -0.79375 H 36.5125 34.925 v 0.79375 0.79375 z m 65.0875,0 H 88.9 v -0.79375 -0.79375 H 87.3125 85.725 V 253.34373 214.44998 H 84.93125 84.1375 v -11.1125 -11.1125 h 39.6875 39.6875 v 11.1125 11.1125 h -0.79375 -0.79375 v 39.6875 39.6875 h -2.38125 -2.38125 v -0.79375 -0.79375 h -3.175 -3.175 v 0.79375 0.79375 H 146.05 141.2875 V 272.39373 250.96248 H 123.825 106.3625 v 21.43125 21.43125 z m 26.19375,-60.325 h 17.4625 v -9.525 -9.525 H 123.825 106.3625 v 9.525 9.525 z m 440.53125,60.325 H 561.975 v -39.6875 -39.6875 H 547.6875 533.4 v -7.9375 -7.9375 h 0.79375 0.79375 v -0.79375 -0.79375 H 534.19375 533.4 v -2.38125 -2.38125 h 39.6875 39.6875 v 11.1125 11.1125 H 597.69375 582.6125 v 39.6875 39.6875 h -6.35 -6.35 v -0.79375 -0.79375 h -1.5875 -1.5875 v 0.79375 0.79375 z m 65.0875,0 h -8.73125 v -0.79375 -0.79375 h -1.5875 -1.5875 V 253.34373 214.44998 H 616.74375 615.95 v -11.1125 -11.1125 h 39.6875 39.6875 v 11.1125 11.1125 h -0.79375 -0.79375 v 39.6875 39.6875 h -2.38125 -2.38125 v -0.79375 -0.79375 h -3.175 -3.175 v 0.79375 0.79375 H 677.8625 673.1 V 272.39373 250.96248 H 655.6375 638.175 v 21.43125 21.43125 z m 26.19375,-60.325 H 673.1 v -9.525 -9.525 H 655.6375 638.175 v 9.525 9.525 z m -449.2625,58.7375 h -39.6875 v -3.96875 -3.96875 h 0.79375 0.79375 v -0.79375 -0.79375 h -0.79375 -0.79375 v -6.35 -6.35 h 0.79375 0.79375 v -38.1 -38.1 h 5.55625 5.55625 v 0.79375 0.79375 h 0.79375 0.79375 v -0.79375 -0.79375 h 3.96875 3.96875 v 38.1 38.1 h 28.575 28.575 v 11.1125 11.1125 z m 82.55,0 h -39.6875 v -3.96875 -3.96875 h 0.79375 0.79375 v -2.38125 -2.38125 h -0.79375 -0.79375 v -4.7625 -4.7625 h 0.79375 0.79375 v -27.78125 -27.78125 h -0.79375 -0.79375 v -11.1125 -11.1125 h 39.6875 39.6875 v 5.55625 5.55625 H 326.23125 323.85 v 0.79375 0.79375 h 2.38125 2.38125 v 4.7625 4.7625 h -28.575 -28.575 v 7.9375 7.9375 h 11.90625 11.90625 v 8.73125 8.73125 H 283.36875 271.4625 v 11.1125 11.1125 h 28.575 28.575 v 4.7625 4.7625 h -0.79375 -0.79375 v 0.79375 0.79375 h 0.79375 0.79375 v 5.55625 5.55625 z m 82.55,0 h -39.6875 v -11.1125 -11.1125 H 359.56875 387.35 v -8.73125 -8.73125 H 359.56875 331.7875 v -11.1125 -11.1125 h 0.79375 0.79375 v -7.9375 -7.9375 h -0.79375 -0.79375 v -5.55625 -5.55625 h 0.79375 0.79375 v -2.38125 -2.38125 h -0.79375 -0.79375 v -3.175 -3.175 h 39.6875 39.6875 v 4.7625 4.7625 h -1.5875 -1.5875 v 0.79375 0.79375 h 1.5875 1.5875 v 5.55625 5.55625 h -28.575 -28.575 v 7.9375 7.9375 h 28.575 28.575 v 3.175 3.175 h -0.79375 -0.79375 v 1.5875 1.5875 h 0.79375 0.79375 v 6.35 6.35 h -1.5875 -1.5875 v 8.73125 8.73125 h 1.5875 1.5875 v 11.1125 11.1125 z m 454.025,0 h -39.6875 v -3.96875 -3.96875 h 0.79375 0.79375 v -2.38125 -2.38125 h -0.79375 -0.79375 v -3.96875 -3.96875 h 0.79375 0.79375 v -28.575 -28.575 h -0.79375 -0.79375 v -11.1125 -11.1125 H 825.5 865.1875 v 5.55625 5.55625 h -2.38125 -2.38125 v 0.79375 0.79375 h 2.38125 2.38125 v 4.7625 4.7625 h -28.575 -28.575 v 7.9375 7.9375 H 819.94375 831.85 v 8.73125 8.73125 H 819.94375 808.0375 v 11.1125 11.1125 h 28.575 28.575 v 4.7625 4.7625 H 864.39375 863.6 v 0.79375 0.79375 h 0.79375 0.79375 v 5.55625 5.55625 z m 49.2125,0 H 869.95 v -16.66875 -16.66875 h -0.79375 -0.79375 v -11.1125 -11.1125 h 0.79375 0.79375 v -11.1125 -11.1125 h -0.79375 -0.79375 v -4.7625 -4.7625 h 1.5875 1.5875 v -1.5875 -1.5875 h -1.5875 -1.5875 v -4.7625 -4.7625 h 39.6875 39.6875 v 11.1125 11.1125 H 946.94375 946.15 v 11.1125 11.1125 h 0.79375 0.79375 v 3.175 3.175 H 946.94375 946.15 v 0.79375 0.79375 h 0.79375 0.79375 v 7.14375 7.14375 H 946.94375 946.15 v 2.38125 2.38125 h 0.79375 0.79375 v 2.38125 2.38125 h 0.79375 0.79375 v 2.38125 2.38125 h 0.79375 0.79375 v 2.38125 2.38125 h 0.79375 0.79375 v 3.175 3.175 h -0.79375 -0.79375 v 0.79375 0.79375 H 948.53125 946.15 v 0.79375 0.79375 h -2.38125 -2.38125 v 0.79375 0.79375 h -2.38125 -2.38125 v 0.79375 0.79375 h -2.38125 -2.38125 v -0.79375 -0.79375 h -0.79375 -0.79375 v -2.38125 -2.38125 h -0.79375 -0.79375 v -2.38125 -2.38125 H 927.89375 927.1 v -2.38125 -2.38125 h -0.79375 -0.79375 v -2.38125 -2.38125 h -0.79375 -0.79375 v -2.38125 -2.38125 h -0.79375 -0.79375 v -3.175 -3.175 h -15.875 -15.875 v 16.66875 16.66875 h -3.175 -3.175 v -0.79375 -0.79375 h -2.38125 -2.38125 v 0.79375 0.79375 z m 33.3375,-55.5625 h 17.4625 v -11.1125 -11.1125 H 908.05 890.5875 v 11.1125 11.1125 z m 55.5625,55.5625 h -3.175 v -50.00625 -50.00625 h 10.31875 10.31875 v 0.79375 0.79375 h 2.38125 2.38125 v -0.79375 -0.79375 h 2.38125 2.38125 v 0.79375 0.79375 h 0.79375 0.79375 v 2.38125 2.38125 h 0.79375 0.79375 v 2.38125 2.38125 h 0.79375 0.79375 v 2.38125 2.38125 h 0.79375 0.79375 v 2.38125 2.38125 h 0.79375 0.79375 v 2.38125 2.38125 h 0.79375 0.79375 v 2.38125 2.38125 h 0.7938 0.7937 v 2.38125 2.38125 h 0.7937 0.7938 v 2.38125 2.38125 h 0.7937 0.7938 v 2.38125 2.38125 h 0.7937 0.7938 v 2.38125 2.38125 h 0.7937 0.7938 v 2.38125 2.38125 h 0.7937 0.7938 v -26.9875 -26.9875 h 3.175 3.175 v 0.79375 0.79375 h 1.5875 1.5875 v -0.79375 -0.79375 h 5.5562 5.5563 v 50.00625 50.00625 h -2.3813 -2.3812 v -0.79375 -0.79375 h -0.7938 -0.7937 v 0.79375 0.79375 h -7.1438 -7.1437 v -0.79375 -0.79375 h -2.3813 -2.3812 v 0.79375 0.79375 h -2.3813 -2.3812 v -0.79375 -0.79375 h -0.79375 -0.79375 v -2.38125 -2.38125 H 997.74375 996.95 v -2.38125 -2.38125 h -0.79375 -0.79375 v -2.38125 -2.38125 h -0.79375 -0.79375 v -2.38125 -2.38125 h -0.79375 -0.79375 v -2.38125 -2.38125 H 991.39375 990.6 v -2.38125 -2.38125 h -0.79375 -0.79375 v -2.38125 -2.38125 h -0.79375 -0.79375 v -2.38125 -2.38125 h -0.79375 -0.79375 v -2.38125 -2.38125 H 985.04375 984.25 v -2.38125 -2.38125 h -0.79375 -0.79375 v -2.38125 -2.38125 h -0.79375 -0.79375 v 26.9875 26.9875 h -5.55625 -5.55625 v -0.79375 -0.79375 h -1.5875 -1.5875 v 0.79375 0.79375 z m -515.14375,-22.225 H 444.5 v -9.525 -9.525 h -4.7625 -4.7625 v -4.7625 -4.7625 h 12.7 12.7 v 4.7625 4.7625 h -3.96875 -3.96875 v 9.525 9.525 z m 18.25625,0 h -4.7625 v -14.2875 -14.2875 h 4.7625 4.7625 v 4.7625 4.7625 h 3.96875 3.96875 v -4.7625 -4.7625 h 4.7625 4.7625 v 14.2875 14.2875 h -2.38125 -2.38125 v -0.79375 -0.79375 H 483.39375 482.6 v 0.79375 0.79375 h -1.5875 -1.5875 v -5.55625 -5.55625 h -3.96875 -3.96875 v 5.55625 5.55625 z m 36.5125,0 h -12.7 v -4.7625 -4.7625 h 0.79375 0.79375 v -4.7625 -4.7625 h -0.79375 -0.79375 v -4.7625 -4.7625 h 12.7 12.7 v 4.7625 4.7625 H 508 500.0625 v 0.79375 0.79375 H 504.03125 508 v 3.175 3.175 h -3.96875 -3.96875 v 0.79375 0.79375 H 508 h 7.9375 v 4.7625 4.7625 z m -36.5125,-31.75 h -12.7 v -4.7625 -4.7625 h 0.79375 0.79375 v -4.7625 -4.7625 h -0.79375 -0.79375 v -2.38125 -2.38125 h 0.79375 0.79375 v -0.79375 -0.79375 h -0.79375 -0.79375 v -1.5875 -1.5875 h 12.7 12.7 v 4.7625 4.7625 h -0.79375 -0.79375 v 4.7625 4.7625 h 0.79375 0.79375 v 4.7625 4.7625 z m 0,-9.525 h 3.175 v -4.7625 -4.7625 h -3.175 -3.175 v 4.7625 4.7625 z m 19.84375,9.525 H 482.6 v -9.525 -9.525 h -0.79375 -0.79375 v -4.7625 -4.7625 h 12.7 12.7 v 4.7625 4.7625 h -7.9375 -7.9375 v 1.5875 1.5875 h 3.96875 3.96875 v 3.175 3.175 h -3.96875 -3.96875 v 4.7625 4.7625 z"
       style="fill:#3f2912;stroke-width:0.26458332" />
    <path
       inkscape:connector-curvature="0"
       id="path852"
       d="m 731.04375,295.41248 h -2.38125 v -0.79375 -0.79375 h -0.79375 -0.79375 v -2.38125 -2.38125 h -0.79375 -0.79375 v -2.38125 -2.38125 H 724.69375 723.9 v -2.38125 -2.38125 h -0.79375 -0.79375 v -2.38125 -2.38125 h -0.79375 -0.79375 v -2.38125 -2.38125 h -0.79375 -0.79375 v -2.38125 -2.38125 H 718.34375 717.55 v -2.38125 -2.38125 h -0.79375 -0.79375 v -2.38125 -2.38125 h -0.79375 -0.79375 v -2.38125 -2.38125 h -0.79375 -0.79375 v -2.38125 -2.38125 H 711.99375 711.2 v -2.38125 -2.38125 h -0.79375 -0.79375 v -2.38125 -2.38125 h -0.79375 -0.79375 v -2.38125 -2.38125 h -0.79375 -0.79375 v -2.38125 -2.38125 H 705.64375 704.85 v -2.38125 -2.38125 h -0.79375 -0.79375 v -2.38125 -2.38125 h -0.79375 -0.79375 v -2.38125 -2.38125 h -0.79375 -0.79375 v -2.38125 -2.38125 H 699.29375 698.5 v -3.175 -3.175 h 0.79375 0.79375 v -0.79375 -0.79375 h 2.38125 2.38125 v -0.79375 -0.79375 h 2.38125 2.38125 v -0.79375 -0.79375 h 2.38125 2.38125 v -0.79375 -0.79375 h 2.38125 2.38125 v 0.79375 0.79375 h 0.79375 0.79375 v 2.38125 2.38125 h 0.79375 0.79375 v 2.38125 2.38125 h 0.79375 0.79375 v 2.38125 2.38125 h 0.79375 0.79375 v 2.38125 2.38125 h 0.79375 0.79375 v 2.38125 2.38125 h 0.79375 0.79375 v 2.38125 2.38125 h 0.79375 0.79375 v 2.38125 2.38125 h 0.79375 0.79375 v 2.38125 2.38125 h 0.79375 0.79375 v 2.38125 2.38125 h 0.79375 0.79375 v 2.38125 2.38125 h 0.79375 0.79375 v 2.38125 2.38125 h 0.79375 0.79375 v 2.38125 2.38125 h 0.79375 0.79375 v 2.38125 2.38125 h 0.79375 0.79375 v -2.38125 -2.38125 h 0.79375 0.79375 v -2.38125 -2.38125 h 0.79375 0.79375 v -2.38125 -2.38125 h 0.79375 0.79375 v -2.38125 -2.38125 h 0.79375 0.79375 v -2.38125 -2.38125 h 0.79375 0.79375 v -2.38125 -2.38125 h 0.79375 0.79375 v -2.38125 -2.38125 h 0.79375 0.79375 v -2.38125 -2.38125 h 0.79375 0.79375 v -2.38125 -2.38125 h 0.79375 0.79375 v -2.38125 -2.38125 h 0.79375 0.79375 v -2.38125 -2.38125 h 0.79375 0.79375 v -2.38125 -2.38125 h 0.79375 0.79375 v -2.38125 -2.38125 H 761.20625 762 v -0.79375 -0.79375 h 2.38125 2.38125 v 0.79375 0.79375 h 0.79375 0.79375 v 1.5875 1.5875 h 1.5875 1.5875 v 0.79375 0.79375 h 1.5875 1.5875 v -0.79375 -0.79375 h 3.175 3.175 v 0.79375 0.79375 h 0.79375 0.79375 v 3.175 3.175 H 781.84375 781.05 v 2.38125 2.38125 h -0.79375 -0.79375 v 2.38125 2.38125 h -0.79375 -0.79375 v 2.38125 2.38125 h -0.79375 -0.79375 v 2.38125 2.38125 H 775.49375 774.7 v 2.38125 2.38125 h -0.79375 -0.79375 v 2.38125 2.38125 h -0.79375 -0.79375 v 2.38125 2.38125 h -0.79375 -0.79375 v 2.38125 2.38125 H 769.14375 768.35 v 2.38125 2.38125 h -0.79375 -0.79375 v 2.38125 2.38125 h -0.79375 -0.79375 v 2.38125 2.38125 h -0.79375 -0.79375 v 2.38125 2.38125 H 762.79375 762 v 2.38125 2.38125 h -0.79375 -0.79375 v 2.38125 2.38125 h -0.79375 -0.79375 v 2.38125 2.38125 h -0.79375 -0.79375 v 2.38125 2.38125 H 756.44375 755.65 v 2.38125 2.38125 h -0.79375 -0.79375 v 2.38125 2.38125 h -0.79375 -0.79375 v 0.79375 0.79375 h -2.38125 -2.38125 v -0.79375 -0.79375 H 745.33125 742.95 v -0.79375 -0.79375 h -0.79375 -0.79375 v -0.79375 -0.79375 h -1.5875 -1.5875 v 1.5875 1.5875 h -2.38125 -2.38125 v 0.79375 0.79375 z m 0,-9.525 h 0.79375 v -2.38125 -2.38125 H 731.04375 730.25 v -2.38125 -2.38125 h -0.79375 -0.79375 v -2.38125 -2.38125 h -0.79375 -0.79375 v 2.38125 2.38125 h 0.79375 0.79375 v 2.38125 2.38125 h 0.79375 0.79375 v 2.38125 2.38125 z m 4.7625,-14.2875 H 736.6 v -2.38125 -2.38125 h -0.79375 -0.79375 v -2.38125 -2.38125 h -0.79375 -0.79375 v 2.38125 2.38125 h 0.79375 0.79375 v 2.38125 2.38125 z m 12.7,-3.175 H 749.3 v -2.38125 -2.38125 h 0.79375 0.79375 v -2.38125 -2.38125 h 0.79375 0.79375 v -2.38125 -2.38125 h -0.79375 -0.79375 v 2.38125 2.38125 H 750.09375 749.3 v 2.38125 2.38125 h -0.79375 -0.79375 v 2.38125 2.38125 z m 7.9375,-1.5875 h 0.79375 v -2.38125 -2.38125 h 0.79375 0.79375 v -2.38125 -2.38125 h 0.79375 0.79375 v -2.38125 -2.38125 h -0.79375 -0.79375 v 2.38125 2.38125 h -0.79375 -0.79375 v 2.38125 2.38125 H 756.44375 755.65 v 2.38125 2.38125 z m -31.75,-3.175 h 0.79375 v -2.38125 -2.38125 H 724.69375 723.9 v -2.38125 -2.38125 h -0.79375 -0.79375 v -2.38125 -2.38125 h -0.79375 -0.79375 v 2.38125 2.38125 h 0.79375 0.79375 v 2.38125 2.38125 h 0.79375 0.79375 v 2.38125 2.38125 z m 4.7625,-9.525 H 730.25 v -2.38125 -2.38125 h -0.79375 -0.79375 v -2.38125 -2.38125 h -0.79375 -0.79375 v -2.38125 -2.38125 h -0.79375 -0.79375 v -2.38125 -2.38125 H 724.69375 723.9 v -2.38125 -2.38125 h -0.79375 -0.79375 v 2.38125 2.38125 h 0.79375 0.79375 v 2.38125 2.38125 h 0.79375 0.79375 v 2.38125 2.38125 h 0.79375 0.79375 v 2.38125 2.38125 h 0.79375 0.79375 v 2.38125 2.38125 z m 22.225,-6.35 h 0.79375 v -2.38125 -2.38125 h 0.79375 0.79375 v -2.38125 -2.38125 h 0.79375 0.79375 v -2.38125 -2.38125 h -0.79375 -0.79375 v 2.38125 2.38125 h -0.79375 -0.79375 v 2.38125 2.38125 h -0.79375 -0.79375 v 2.38125 2.38125 z m 7.9375,-4.7625 h 0.79375 v -2.38125 -2.38125 H 761.20625 762 v -2.38125 -2.38125 h 0.79375 0.79375 v -2.38125 -2.38125 H 762.79375 762 v 2.38125 2.38125 h -0.79375 -0.79375 v 2.38125 2.38125 h -0.79375 -0.79375 v 2.38125 2.38125 z m -46.0375,-12.7 h 0.79375 v -2.38125 -2.38125 h -0.79375 -0.79375 v -2.38125 -2.38125 H 711.99375 711.2 v 2.38125 2.38125 h 0.79375 0.79375 v 2.38125 2.38125 z m 3.175,-6.35 H 717.55 v -2.38125 -2.38125 h -0.79375 -0.79375 v -2.38125 -2.38125 h -0.79375 -0.79375 v 2.38125 2.38125 h 0.79375 0.79375 v 2.38125 2.38125 z m 46.0375,0 h 0.79375 v -2.38125 -2.38125 h 0.79375 0.79375 v -2.38125 -2.38125 h -0.79375 -0.79375 v 2.38125 2.38125 H 762.79375 762 v 2.38125 2.38125 z m -730.25,69.85 H 30.1625 v -39.6875 -39.6875 H 15.875 1.5875 v -7.9375 -7.9375 H 2.38125 3.175 v -0.79375 -0.79375 H 2.38125 1.5875 v -2.38125 -2.38125 H 41.275 80.9625 v 11.1125 11.1125 H 65.88125 50.8 v 39.6875 39.6875 H 44.45 38.1 v -0.79375 -0.79375 H 36.5125 34.925 v 0.79375 0.79375 z m 3.175,-15.875 h 0.79375 v -3.175 -3.175 H 35.71875 34.925 v 3.175 3.175 z m 6.35,-3.175 h 0.79375 v -5.55625 -5.55625 H 42.06875 41.275 v 5.55625 5.55625 z m 4.7625,-9.525 H 47.625 v -3.96875 -3.96875 H 46.83125 46.0375 v 3.96875 3.96875 z m -11.1125,-1.5875 h 0.79375 v -6.35 -6.35 H 35.71875 34.925 v 6.35 6.35 z m 7.9375,-11.1125 H 44.45 v -7.14375 -7.14375 H 43.65625 42.8625 v 7.14375 7.14375 z m -7.9375,-19.05 h 0.79375 v -5.55625 -5.55625 H 35.71875 34.925 v 5.55625 5.55625 z m 6.35,-7.9375 h 0.79375 v -3.96875 -3.96875 H 42.06875 41.275 v 3.96875 3.96875 z m 4.7625,-15.875 H 50.8 v -0.79375 -0.79375 H 46.83125 42.8625 v 0.79375 0.79375 z m -19.05,-1.5875 h 5.55625 v -0.79375 -0.79375 H 27.78125 22.225 v 0.79375 0.79375 z m 36.5125,0 h 7.14375 v -0.79375 -0.79375 H 64.29375 57.15 v 0.79375 0.79375 z m -18.25625,-3.175 h 6.35 v -0.79375 -0.79375 h -6.35 -6.35 v 0.79375 0.79375 z m -19.05,-4.7625 H 31.75 v -0.79375 -0.79375 H 26.9875 22.225 v 0.79375 0.79375 z m 39.6875,0 h 6.35 v -0.79375 -0.79375 h -6.35 -6.35 v 0.79375 0.79375 z m -19.05,-4.7625 h 6.35 v -0.79375 -0.79375 h -6.35 -6.35 v 0.79375 0.79375 z m 50.00625,98.425 H 88.9 v -0.79375 -0.79375 H 87.3125 85.725 V 253.34373 214.44998 H 84.93125 84.1375 v -11.1125 -11.1125 h 39.6875 39.6875 v 11.1125 11.1125 h -0.79375 -0.79375 v 39.6875 39.6875 h -2.38125 -2.38125 v -0.79375 -0.79375 h -3.175 -3.175 v 0.79375 0.79375 H 146.05 141.2875 V 272.39373 250.96248 H 123.825 106.3625 v 21.43125 21.43125 z m 55.5625,-11.1125 h 0.79375 v -5.55625 -5.55625 H 153.19375 152.4 v 5.55625 5.55625 z m -63.5,-4.7625 h 0.79375 v -4.7625 -4.7625 H 89.69375 88.9 v 4.7625 4.7625 z m 58.7375,0 h 0.79375 v -3.96875 -3.96875 h -0.79375 -0.79375 v 3.96875 3.96875 z m -47.625,-1.5875 H 101.6 v -7.14375 -7.14375 h -0.79375 -0.79375 v 7.14375 7.14375 z m -4.7625,-1.5875 h 0.79375 v -14.2875 -14.2875 H 96.04375 95.25 v 14.2875 14.2875 z m 49.2125,-3.175 H 146.05 v -5.55625 -5.55625 h -0.79375 -0.79375 v 5.55625 5.55625 z m 11.1125,-3.175 h 0.79375 v -5.55625 -5.55625 h -0.79375 -0.79375 v 5.55625 5.55625 z m -66.675,-3.175 h 0.79375 v -9.525 -9.525 H 89.69375 88.9 v 9.525 9.525 z m 60.325,-4.7625 h 0.79375 v -6.35 -6.35 h -0.79375 -0.79375 v 6.35 6.35 z m 3.175,-6.35 h 0.79375 v -7.14375 -7.14375 H 153.19375 152.4 v 7.14375 7.14375 z M 120.65,246.19998 h 7.9375 v -0.79375 -0.79375 h -7.9375 -7.9375 v 0.79375 0.79375 z m -11.90625,-3.175 h 2.38125 v -0.79375 -0.79375 h -2.38125 -2.38125 v 0.79375 0.79375 z m 15.875,0 h 7.14375 v -0.79375 -0.79375 h -7.14375 -7.14375 v 0.79375 0.79375 z m 23.8125,0 h 0.79375 v -5.55625 -5.55625 h -0.79375 -0.79375 v 5.55625 5.55625 z m 7.9375,-3.175 h 0.79375 v -11.1125 -11.1125 h -0.79375 -0.79375 v 11.1125 11.1125 z m -37.30625,-1.5875 H 127 v -0.79375 -0.79375 h -7.9375 -7.9375 v 0.79375 0.79375 z m -23.01875,-1.5875 h 0.79375 v -6.35 -6.35 H 96.04375 95.25 v 6.35 6.35 z m 27.78125,-3.175 h 17.4625 v -9.525 -9.525 H 123.825 106.3625 v 9.525 9.525 z m -23.01875,-1.5875 H 101.6 v -7.9375 -7.9375 h -0.79375 -0.79375 v 7.9375 7.9375 z m -11.1125,-1.5875 h 0.79375 v -7.14375 -7.14375 H 89.69375 88.9 v 7.14375 7.14375 z m 57.15,-1.5875 h 0.79375 v -6.35 -6.35 H 146.84375 146.05 v 6.35 6.35 z m 3.175,0 h 0.79375 v -4.7625 -4.7625 h -0.79375 -0.79375 v 4.7625 4.7625 z m -34.925,-19.05 H 127 v -0.79375 -0.79375 H 115.09375 103.1875 v 0.79375 0.79375 z m 24.60625,0 h 4.7625 v -0.79375 -0.79375 H 139.7 134.9375 v 0.79375 0.79375 z m -19.05,-4.7625 h 7.9375 v -0.79375 -0.79375 h 7.9375 7.9375 v -0.79375 -0.79375 h -7.9375 -7.9375 v 0.79375 0.79375 h -7.9375 -7.9375 v 0.79375 0.79375 z m -14.2875,-3.175 H 114.3 v -0.79375 -0.79375 h -7.9375 -7.9375 v 0.79375 0.79375 z m 23.8125,-4.7625 h 9.525 v -0.79375 -0.79375 h -9.525 -9.525 v 0.79375 0.79375 z m 434.18125,96.8375 H 561.975 v -39.6875 -39.6875 H 547.6875 533.4 v -7.9375 -7.9375 h 0.79375 0.79375 v -0.79375 -0.79375 H 534.19375 533.4 v -2.38125 -2.38125 h 39.6875 39.6875 v 11.1125 11.1125 H 597.69375 582.6125 v 39.6875 39.6875 h -6.35 -6.35 v -0.79375 -0.79375 h -1.5875 -1.5875 v 0.79375 0.79375 z m 9.525,-11.1125 h 0.79375 v -3.96875 -3.96875 h -0.79375 -0.79375 v 3.96875 3.96875 z m -6.35,-3.175 h 0.79375 v -6.35 -6.35 h -0.79375 -0.79375 v 6.35 6.35 z m 9.525,-1.5875 H 577.85 v -4.7625 -4.7625 h -0.79375 -0.79375 v 4.7625 4.7625 z m -3.175,-14.2875 h 0.79375 v -6.35 -6.35 h -0.79375 -0.79375 v 6.35 6.35 z m -7.9375,-11.1125 h 0.79375 v -4.7625 -4.7625 H 565.94375 565.15 v 4.7625 4.7625 z m 6.35,-12.7 h 0.79375 v -7.14375 -7.14375 H 572.29375 571.5 v 7.14375 7.14375 z m 4.7625,-7.9375 H 577.85 v -7.14375 -7.14375 h -0.79375 -0.79375 v 7.14375 7.14375 z m -9.525,-3.175 h 0.79375 v -7.14375 -7.14375 h -0.79375 -0.79375 v 7.14375 7.14375 z m -18.25625,-19.05 h 4.7625 v -0.79375 -0.79375 h -4.7625 -4.7625 v 0.79375 0.79375 z m 38.1,0 h 7.9375 v -0.79375 -0.79375 h -7.9375 -7.9375 v 0.79375 0.79375 z m -23.01875,-3.175 H 571.5 v -0.79375 -0.79375 h -7.14375 -7.14375 v 0.79375 0.79375 z m 22.225,-1.5875 h 7.14375 v -0.79375 -0.79375 h -7.14375 -7.14375 v 0.79375 0.79375 z m -26.9875,-4.7625 H 565.15 v -0.79375 -0.79375 h -5.55625 -5.55625 v 0.79375 0.79375 z m 26.9875,-1.5875 H 596.9 v -0.79375 -0.79375 H 586.58125 576.2625 v 0.79375 0.79375 z m 42.8625,95.25 h -8.73125 v -0.79375 -0.79375 h -1.5875 -1.5875 V 253.34373 214.44998 H 616.74375 615.95 v -11.1125 -11.1125 h 39.6875 39.6875 v 11.1125 11.1125 h -0.79375 -0.79375 v 39.6875 39.6875 h -2.38125 -2.38125 v -0.79375 -0.79375 h -3.175 -3.175 v 0.79375 0.79375 H 677.8625 673.1 V 272.39373 250.96248 H 655.6375 638.175 v 21.43125 21.43125 z m 1.5875,-11.1125 h 0.79375 v -6.35 -6.35 h -0.79375 -0.79375 v 6.35 6.35 z m -6.35,-1.5875 h 0.79375 v -6.35 -6.35 h -0.79375 -0.79375 v 6.35 6.35 z m 9.525,-12.7 H 635 v -7.9375 -7.9375 h -0.79375 -0.79375 v 7.9375 7.9375 z m -12.7,-1.5875 H 622.3 v -3.96875 -3.96875 h -0.79375 -0.79375 v 3.96875 3.96875 z m 6.35,-6.35 H 628.65 v -10.31875 -10.31875 h -0.79375 -0.79375 v 10.31875 10.31875 z m -6.35,-11.1125 H 622.3 v -7.9375 -7.9375 h -0.79375 -0.79375 v 7.9375 7.9375 z m 26.19375,-3.175 h 4.7625 v -0.79375 -0.79375 H 647.7 642.9375 v 0.79375 0.79375 z m 12.7,-1.5875 h 6.35 v -0.79375 -0.79375 h -6.35 -6.35 v 0.79375 0.79375 z m -7.9375,-3.175 h 6.35 v -0.79375 -0.79375 h -6.35 -6.35 v 0.79375 0.79375 z m -3.96875,-3.175 H 654.05 v -0.79375 -0.79375 h -5.55625 -5.55625 v 0.79375 0.79375 z m -20.6375,-3.175 H 628.65 v -7.9375 -7.9375 h -0.79375 -0.79375 v 7.9375 7.9375 z m 27.78125,-1.5875 H 673.1 v -9.525 -9.525 H 655.6375 638.175 v 9.525 9.525 z m -34.13125,-6.35 H 622.3 v -6.35 -6.35 h -0.79375 -0.79375 v 6.35 6.35 z m 12.7,-6.35 H 635 v -3.175 -3.175 h -0.79375 -0.79375 v 3.175 3.175 z m 28.575,-9.525 h 8.73125 v -0.79375 -0.79375 H 662.78125 654.05 v 0.79375 0.79375 z m -28.575,-4.7625 H 641.35 v -0.79375 -0.79375 h -7.14375 -7.14375 v 0.79375 0.79375 z m 19.05,0 h 5.55625 v -0.79375 -0.79375 H 653.25625 647.7 v 0.79375 0.79375 z m 15.08125,-1.5875 H 673.1 v -0.79375 -0.79375 h -4.7625 -4.7625 v 0.79375 0.79375 z m -35.71875,-3.175 H 641.35 v -0.79375 -0.79375 h -8.73125 -8.73125 v 0.79375 0.79375 z m 30.1625,0 h 5.55625 v -0.79375 -0.79375 h 6.35 6.35 v -0.79375 -0.79375 h -6.35 -6.35 v 0.79375 0.79375 h -5.55625 -5.55625 v 0.79375 0.79375 z m -17.4625,-4.7625 h 10.31875 v -0.79375 -0.79375 H 645.31875 635 v 0.79375 0.79375 z m 26.19375,-1.5875 h 6.35 v -0.79375 -0.79375 h -6.35 -6.35 v 0.79375 0.79375 z m -465.1375,96.8375 h -39.6875 v -3.96875 -3.96875 h 0.79375 0.79375 v -0.79375 -0.79375 h -0.79375 -0.79375 v -6.35 -6.35 h 0.79375 0.79375 v -38.1 -38.1 h 5.55625 5.55625 v 0.79375 0.79375 h 0.79375 0.79375 v -0.79375 -0.79375 h 3.96875 3.96875 v 38.1 38.1 h 28.575 28.575 v 11.1125 11.1125 z m -3.96875,-4.7625 H 209.55 v -0.79375 -0.79375 h -7.14375 -7.14375 v 0.79375 0.79375 z m 19.05,-1.5875 H 228.6 v -0.79375 -0.79375 h -7.14375 -7.14375 v 0.79375 0.79375 z m -31.75,-1.5875 h 5.55625 v -0.79375 -0.79375 H 189.70625 184.15 v 0.79375 0.79375 z m 34.925,-3.175 H 228.6 v -0.79375 -0.79375 h -3.96875 -3.96875 v -0.79375 -0.79375 h -7.14375 -7.14375 v 0.79375 0.79375 h 7.14375 7.14375 v 0.79375 0.79375 z m -29.36875,-4.7625 h 15.875 v -0.79375 -0.79375 h -15.875 -15.875 v 0.79375 0.79375 z m 31.75,-1.5875 h 6.35 v -0.79375 -0.79375 h -6.35 -6.35 v 0.79375 0.79375 z m -53.18125,-4.7625 h 0.79375 v -1.5875 -1.5875 h -0.79375 -0.79375 v -1.5875 -1.5875 H 172.24375 171.45 v 1.5875 1.5875 h 0.79375 0.79375 v 1.5875 1.5875 z m 3.175,-6.35 H 177.8 v -6.35 -6.35 h -0.79375 -0.79375 v 6.35 6.35 z m -6.35,-7.9375 H 171.45 v -5.55625 -5.55625 h -0.79375 -0.79375 v 5.55625 5.55625 z m 12.7,0 H 184.15 v -5.55625 -5.55625 h -0.79375 -0.79375 v 5.55625 5.55625 z m -6.35,-9.525 H 177.8 v -4.7625 -4.7625 h -0.79375 -0.79375 v 4.7625 4.7625 z m -3.175,-9.525 h 0.79375 v -6.35 -6.35 h -0.79375 -0.79375 v 6.35 6.35 z m 9.525,0 H 184.15 v -8.73125 -8.73125 h -0.79375 -0.79375 v 8.73125 8.73125 z m -3.175,-14.2875 h 0.79375 v -5.55625 -5.55625 h -0.79375 -0.79375 v 5.55625 5.55625 z m -4.7625,-4.7625 h 0.79375 v -7.14375 -7.14375 h -0.79375 -0.79375 v 7.14375 7.14375 z m 113.50625,74.6125 h -39.6875 v -3.96875 -3.96875 h 0.79375 0.79375 v -2.38125 -2.38125 h -0.79375 -0.79375 v -4.7625 -4.7625 h 0.79375 0.79375 v -27.78125 -27.78125 h -0.79375 -0.79375 v -11.1125 -11.1125 h 39.6875 39.6875 v 5.55625 5.55625 H 326.23125 323.85 v 0.79375 0.79375 h 2.38125 2.38125 v 4.7625 4.7625 h -28.575 -28.575 v 7.9375 7.9375 h 11.90625 11.90625 v 8.73125 8.73125 H 283.36875 271.4625 v 11.1125 11.1125 h 28.575 28.575 v 4.7625 4.7625 h -0.79375 -0.79375 v 0.79375 0.79375 h 0.79375 0.79375 v 5.55625 5.55625 z m -18.25625,-4.7625 h 3.96875 v -0.79375 -0.79375 H 270.66875 266.7 v 0.79375 0.79375 z m 35.71875,0 h 6.35 v -0.79375 -0.79375 h -6.35 -6.35 v 0.79375 0.79375 z m -23.01875,-1.5875 h 5.55625 v -0.79375 -0.79375 h -5.55625 -5.55625 v 0.79375 0.79375 z m 13.49375,-1.5875 h 6.35 v -0.79375 -0.79375 h -6.35 -6.35 v 0.79375 0.79375 z m -35.71875,-1.5875 h 3.96875 v -0.79375 -0.79375 h -3.96875 -3.96875 v 0.79375 0.79375 z m 47.625,-1.5875 h 3.96875 v -0.79375 -0.79375 H 308.76875 304.8 v 0.79375 0.79375 z m -31.75,-1.5875 h 7.14375 v -0.79375 -0.79375 h -7.14375 -7.14375 v 0.79375 0.79375 z m 24.60625,-1.5875 h 4.7625 v -0.79375 -0.79375 h -4.7625 -4.7625 v 0.79375 0.79375 z m -34.13125,-1.5875 H 273.05 v -0.79375 -0.79375 h -5.55625 -5.55625 v 0.79375 0.79375 z m 19.84375,-1.5875 h 6.35 v -0.79375 -0.79375 h -6.35 -6.35 v 0.79375 0.79375 z m 23.01875,0 h 3.96875 v -0.79375 -0.79375 h -3.96875 -3.96875 v 0.79375 0.79375 z m -53.975,-6.35 h 0.79375 v -6.35 -6.35 h -0.79375 -0.79375 v 6.35 6.35 z m 9.525,0 H 266.7 v -7.14375 -7.14375 h -0.79375 -0.79375 v 7.14375 7.14375 z m -4.7625,-4.7625 h 0.79375 v -5.55625 -5.55625 H 261.14375 260.35 v 5.55625 5.55625 z m -4.7625,-11.1125 h 0.79375 v -7.9375 -7.9375 h -0.79375 -0.79375 v 7.9375 7.9375 z m 4.7625,-14.2875 h 0.79375 v -4.7625 -4.7625 H 261.14375 260.35 v 4.7625 4.7625 z m 4.7625,-7.9375 H 266.7 v -4.7625 -4.7625 h -0.79375 -0.79375 v 4.7625 4.7625 z m -9.525,-1.5875 h 0.79375 v -7.14375 -7.14375 h -0.79375 -0.79375 v 7.14375 7.14375 z m 6.35,-3.175 h 0.79375 v -4.7625 -4.7625 h -0.79375 -0.79375 v 4.7625 4.7625 z m -2.38125,-15.875 h 3.175 v -0.79375 -0.79375 h -3.175 -3.175 v 0.79375 0.79375 z m 60.325,0 h 4.7625 v -0.79375 -0.79375 h -4.7625 -4.7625 v 0.79375 0.79375 z m -46.83125,-1.5875 h 3.96875 v -0.79375 -0.79375 h -3.96875 -3.96875 v 0.79375 0.79375 z m 26.19375,0 h 7.9375 v -0.79375 -0.79375 H 300.0375 292.1 v 0.79375 0.79375 z m -22.225,-4.7625 h 4.7625 v -0.79375 -0.79375 h -4.7625 -4.7625 v 0.79375 0.79375 z m 20.6375,0 h 7.9375 v -0.79375 -0.79375 h -7.9375 -7.9375 v 0.79375 0.79375 z m -28.575,-3.175 h 9.525 v -0.79375 -0.79375 h -9.525 -9.525 v 0.79375 0.79375 z m 40.48125,-1.5875 h 5.55625 v -0.79375 -0.79375 H 310.35625 304.8 v 0.79375 0.79375 z m -21.43125,-1.5875 h 4.7625 v -0.79375 -0.79375 h -4.7625 -4.7625 v 0.79375 0.79375 z m 82.55,95.25 h -39.6875 v -11.1125 -11.1125 H 359.56875 387.35 v -8.73125 -8.73125 H 359.56875 331.7875 v -11.1125 -11.1125 h 0.79375 0.79375 v -7.9375 -7.9375 h -0.79375 -0.79375 v -5.55625 -5.55625 h 0.79375 0.79375 v -2.38125 -2.38125 h -0.79375 -0.79375 v -3.175 -3.175 h 39.6875 39.6875 v 4.7625 4.7625 h -1.5875 -1.5875 v 0.79375 0.79375 h 1.5875 1.5875 v 5.55625 5.55625 h -28.575 -28.575 v 7.9375 7.9375 h 28.575 28.575 v 3.175 3.175 h -0.79375 -0.79375 v 1.5875 1.5875 h 0.79375 0.79375 v 6.35 6.35 h -1.5875 -1.5875 v 8.73125 8.73125 h 1.5875 1.5875 v 11.1125 11.1125 z m -26.9875,-4.7625 h 6.35 v -0.79375 -0.79375 h -6.35 -6.35 v 0.79375 0.79375 z m 28.575,0 H 381 v -0.79375 -0.79375 h -7.9375 -7.9375 v 0.79375 0.79375 z m 22.225,-1.5875 h 6.35 v -0.79375 -0.79375 h -6.35 -6.35 v 0.79375 0.79375 z m -41.275,-1.5875 h 4.7625 v -0.79375 -0.79375 h -4.7625 -4.7625 v 0.79375 0.79375 z m 27.78125,-1.5875 H 387.35 v -0.79375 -0.79375 h -5.55625 -5.55625 v 0.79375 0.79375 z m -22.225,-1.5875 h 5.55625 v -0.79375 -0.79375 h -5.55625 -5.55625 v 0.79375 0.79375 z m 6.35,-3.175 h 7.14375 v -0.79375 -0.79375 h -7.14375 -7.14375 v 0.79375 0.79375 z m -9.525,-3.175 h 13.49375 v -0.79375 -0.79375 H 356.39375 342.9 v 0.79375 0.79375 z m 25.4,0 H 387.35 v -0.79375 -0.79375 h -5.55625 -5.55625 v 0.79375 0.79375 z m 17.4625,-1.5875 H 400.05 v -3.96875 -3.96875 h -0.79375 -0.79375 v 3.96875 3.96875 z m -6.35,-7.9375 H 393.7 v -6.35 -6.35 h -0.79375 -0.79375 v 6.35 6.35 z m 12.7,-1.5875 H 406.4 v -5.55625 -5.55625 h -0.79375 -0.79375 v 5.55625 5.55625 z m -6.35,-3.175 H 400.05 v -5.55625 -5.55625 h -0.79375 -0.79375 v 5.55625 5.55625 z m -56.35625,-12.7 h 4.7625 v -0.79375 -0.79375 H 342.9 338.1375 v 0.79375 0.79375 z m 15.08125,-1.5875 h 5.55625 v -0.79375 -0.79375 h -5.55625 -5.55625 v 0.79375 0.79375 z m 19.05,0 h 5.55625 v -0.79375 -0.79375 h -5.55625 -5.55625 v 0.79375 0.79375 z m -8.73125,-3.175 h 6.35 v -0.79375 -0.79375 h -6.35 -6.35 v 0.79375 0.79375 z m 21.43125,-1.5875 H 393.7 v -0.79375 -0.79375 h -3.96875 -3.96875 v 0.79375 0.79375 z m -39.6875,-1.5875 H 355.6 v -0.79375 -0.79375 h -5.55625 -5.55625 v 0.79375 0.79375 z m 21.43125,-1.5875 h 6.35 v -0.79375 -0.79375 h -6.35 -6.35 v 0.79375 0.79375 z m -14.2875,-3.175 h 6.35 v -0.79375 -0.79375 h -6.35 -6.35 v 0.79375 0.79375 z m 30.95625,0 H 393.7 v -0.79375 -0.79375 h -5.55625 -5.55625 v 0.79375 0.79375 z m -49.2125,-4.7625 h 0.79375 v -4.7625 -4.7625 h -0.79375 -0.79375 v 4.7625 4.7625 z m 4.7625,-1.5875 h 0.79375 v -4.7625 -4.7625 H 343.69375 342.9 v 4.7625 4.7625 z m 3.175,-7.9375 h 0.79375 v -3.175 -3.175 h -0.79375 -0.79375 v 3.175 3.175 z m -9.525,-1.5875 h 0.79375 v -2.38125 -2.38125 H 337.34375 336.55 v 2.38125 2.38125 z m 28.575,-9.525 h 7.14375 v -0.79375 -0.79375 h -7.14375 -7.14375 v 0.79375 0.79375 z m 28.575,-1.5875 h 7.14375 v -0.79375 -0.79375 H 394.49375 387.35 v 0.79375 0.79375 z M 355.6,206.51248 h 9.525 v -0.79375 -0.79375 h -9.525 -9.525 v 0.79375 0.79375 z m 19.84375,-1.5875 h 8.73125 v -0.79375 -0.79375 h -8.73125 -8.73125 v 0.79375 0.79375 z m -31.75,-1.5875 h 7.14375 v -0.79375 -0.79375 H 343.69375 336.55 v 0.79375 0.79375 z m 51.59375,0 h 7.9375 v -0.79375 -0.79375 h -7.9375 -7.9375 v 0.79375 0.79375 z m -28.575,-3.175 h 7.9375 v -0.79375 -0.79375 h -7.9375 -7.9375 v -0.79375 -0.79375 H 350.8375 342.9 v 0.79375 0.79375 h 7.9375 7.9375 v 0.79375 0.79375 z m 20.6375,-1.5875 h 9.525 v -0.79375 -0.79375 h -9.525 -9.525 v 0.79375 0.79375 z m 438.15,93.6625 h -39.6875 v -3.96875 -3.96875 h 0.79375 0.79375 v -2.38125 -2.38125 h -0.79375 -0.79375 v -3.96875 -3.96875 h 0.79375 0.79375 v -28.575 -28.575 h -0.79375 -0.79375 v -11.1125 -11.1125 H 825.5 865.1875 v 5.55625 5.55625 h -2.38125 -2.38125 v 0.79375 0.79375 h 2.38125 2.38125 v 4.7625 4.7625 h -28.575 -28.575 v 7.9375 7.9375 H 819.94375 831.85 v 8.73125 8.73125 H 819.94375 808.0375 v 11.1125 11.1125 h 28.575 28.575 v 4.7625 4.7625 H 864.39375 863.6 v 0.79375 0.79375 h 0.79375 0.79375 v 5.55625 5.55625 z m 3.96875,-4.7625 h 13.49375 v -0.79375 -0.79375 H 829.46875 815.975 v 0.79375 0.79375 z m -15.875,-3.175 H 819.15 v -0.79375 -0.79375 h -5.55625 -5.55625 v 0.79375 0.79375 z m -16.66875,-1.5875 h 7.9375 v -0.79375 -0.79375 h -7.9375 -7.9375 v 0.79375 0.79375 z m 40.48125,-1.5875 h 8.73125 v -0.79375 -0.79375 h -8.73125 -8.73125 v 0.79375 0.79375 z m -20.6375,-1.5875 h 7.14375 v -0.79375 -0.79375 h -7.14375 -7.14375 v 0.79375 0.79375 z m 20.6375,-3.175 h 5.55625 v -0.79375 -0.79375 H 837.40625 831.85 v 0.79375 0.79375 z m -23.8125,-1.5875 h 10.31875 v -0.79375 -0.79375 H 813.59375 803.275 v 0.79375 0.79375 z m -9.525,-4.7625 h 0.79375 v -3.96875 -3.96875 h -0.79375 -0.79375 v 3.96875 3.96875 z m -6.35,-1.5875 h 0.79375 v -6.35 -6.35 h -0.79375 -0.79375 v 6.35 6.35 z m -4.7625,-6.35 H 793.75 v -7.14375 -7.14375 h -0.79375 -0.79375 v 7.14375 7.14375 z m 11.1125,-4.7625 h 0.79375 v -4.7625 -4.7625 h -0.79375 -0.79375 v 4.7625 4.7625 z m -9.525,-20.6375 h 0.79375 v -9.525 -9.525 H 794.54375 793.75 v 9.525 9.525 z m 7.9375,-6.35 h 0.79375 v -7.14375 -7.14375 h -0.79375 -0.79375 v 7.14375 7.14375 z m -12.7,-6.35 h 0.79375 v -4.7625 -4.7625 h -0.79375 -0.79375 v 4.7625 4.7625 z m 17.4625,-14.2875 h 8.73125 v -0.79375 -0.79375 h -8.73125 -8.73125 v 0.79375 0.79375 z m 28.575,0 H 844.55 v -0.79375 -0.79375 h -8.73125 -8.73125 v 0.79375 0.79375 z M 806.45,204.92498 h 3.175 v -0.79375 -0.79375 h -3.175 -3.175 v 0.79375 0.79375 z m 20.6375,0 h 9.525 v -0.79375 -0.79375 h -9.525 -9.525 v 0.79375 0.79375 z m -12.7,-4.7625 H 825.5 v -0.79375 -0.79375 H 814.3875 803.275 v 0.79375 0.79375 z m 21.43125,-1.5875 h 7.14375 v -0.79375 -0.79375 h -7.14375 -7.14375 v 0.79375 0.79375 z m 38.89375,93.6625 H 869.95 v -16.66875 -16.66875 h -0.79375 -0.79375 v -11.1125 -11.1125 h 0.79375 0.79375 v -11.1125 -11.1125 h -0.79375 -0.79375 v -4.7625 -4.7625 h 1.5875 1.5875 v -1.5875 -1.5875 h -1.5875 -1.5875 v -4.7625 -4.7625 h 39.6875 39.6875 v 11.1125 11.1125 H 946.94375 946.15 v 11.1125 11.1125 h 0.79375 0.79375 v 3.175 3.175 H 946.94375 946.15 v 0.79375 0.79375 h 0.79375 0.79375 v 7.14375 7.14375 H 946.94375 946.15 v 2.38125 2.38125 h 0.79375 0.79375 v 2.38125 2.38125 h 0.79375 0.79375 v 2.38125 2.38125 h 0.79375 0.79375 v 2.38125 2.38125 h 0.79375 0.79375 v 3.175 3.175 h -0.79375 -0.79375 v 0.79375 0.79375 H 948.53125 946.15 v 0.79375 0.79375 h -2.38125 -2.38125 v 0.79375 0.79375 h -2.38125 -2.38125 v 0.79375 0.79375 h -2.38125 -2.38125 v -0.79375 -0.79375 h -0.79375 -0.79375 v -2.38125 -2.38125 h -0.79375 -0.79375 v -2.38125 -2.38125 H 927.89375 927.1 v -2.38125 -2.38125 h -0.79375 -0.79375 v -2.38125 -2.38125 h -0.79375 -0.79375 v -2.38125 -2.38125 h -0.79375 -0.79375 v -3.175 -3.175 h -15.875 -15.875 v 16.66875 16.66875 h -3.175 -3.175 v -0.79375 -0.79375 h -2.38125 -2.38125 v 0.79375 0.79375 z m 67.46875,-7.9375 h 0.79375 v -2.38125 -2.38125 h -0.79375 -0.79375 v 2.38125 2.38125 z m -55.5625,-3.175 h 0.79375 v -3.96875 -3.96875 h -0.79375 -0.79375 v 3.96875 3.96875 z m -11.1125,-1.5875 H 876.3 v -3.175 -3.175 h -0.79375 -0.79375 v 3.175 3.175 z m 65.0875,-4.7625 h 0.79375 v -2.38125 -2.38125 H 940.59375 939.8 v -2.38125 -2.38125 h -0.79375 -0.79375 v -2.38125 -2.38125 h -0.79375 -0.79375 v 2.38125 2.38125 h 0.79375 0.79375 v 2.38125 2.38125 h 0.79375 0.79375 v 2.38125 2.38125 z m -58.7375,-1.5875 H 882.65 v -4.7625 -4.7625 h -0.79375 -0.79375 v 4.7625 4.7625 z m -6.35,-6.35 H 876.3 v -3.96875 -3.96875 h -0.79375 -0.79375 v 3.96875 3.96875 z m 55.5625,0 h 0.79375 v -2.38125 -2.38125 h -0.79375 -0.79375 v -1.5875 -1.5875 h -0.79375 -0.79375 v 1.5875 1.5875 h 0.79375 0.79375 v 2.38125 2.38125 z m -46.0375,-1.5875 h 0.79375 v -3.175 -3.175 h -0.79375 -0.79375 v 3.175 3.175 z m 0.79375,-11.1125 h 7.9375 v -0.79375 -0.79375 h -7.9375 -7.9375 v 0.79375 0.79375 z m 30.95625,0 h 7.14375 v -0.79375 -0.79375 h -7.14375 -7.14375 v 0.79375 0.79375 z m -10.31875,-4.7625 h 6.35 v -0.79375 -0.79375 h -6.35 -6.35 v 0.79375 0.79375 z m 19.05,0 h 3.175 v -0.79375 -0.79375 h -3.175 -3.175 v 0.79375 0.79375 z m -31.75,-3.175 H 901.7 v -0.79375 -0.79375 h -7.9375 -7.9375 v 0.79375 0.79375 z m 24.60625,-3.175 H 927.1 v -0.79375 -0.79375 h -8.73125 -8.73125 v 0.79375 0.79375 z m -30.95625,-1.5875 h 6.35 v -0.79375 -0.79375 h -6.35 -6.35 v 0.79375 0.79375 z m -13.49375,-4.7625 h 0.79375 v -3.175 -3.175 h -0.79375 -0.79375 v 3.175 3.175 z m 7.9375,0 H 882.65 v -3.175 -3.175 h -0.79375 -0.79375 v 3.175 3.175 z m 26.19375,0 h 17.4625 v -11.1125 -11.1125 H 908.05 890.5875 v 11.1125 11.1125 z m 21.43125,0 h 0.79375 v -4.7625 -4.7625 h -0.79375 -0.79375 v 4.7625 4.7625 z m 9.525,0 H 939.8 v -4.7625 -4.7625 h -0.79375 -0.79375 v 4.7625 4.7625 z m -61.9125,-4.7625 h 0.79375 v -4.7625 -4.7625 H 877.09375 876.3 v 4.7625 4.7625 z m 58.7375,0 h 0.79375 v -3.96875 -3.96875 h -0.79375 -0.79375 v 3.96875 3.96875 z m -50.8,-3.175 h 0.79375 v -5.55625 -5.55625 h -0.79375 -0.79375 v 5.55625 5.55625 z m -11.1125,-3.175 h 0.79375 v -3.175 -3.175 h -0.79375 -0.79375 v 3.175 3.175 z m 57.15,-3.175 h 0.79375 v -3.175 -3.175 h -0.79375 -0.79375 v 3.175 3.175 z m 9.525,-1.5875 h 0.79375 v -2.38125 -2.38125 H 940.59375 939.8 v 2.38125 2.38125 z m -61.9125,-1.5875 h 0.79375 v -2.38125 -2.38125 h -0.79375 -0.79375 v 2.38125 2.38125 z m 44.45,-9.525 h 5.55625 v -0.79375 -0.79375 h -5.55625 -5.55625 v 0.79375 0.79375 z m -24.60625,-1.5875 h 9.525 v -0.79375 -0.79375 H 898.525 889 v 0.79375 0.79375 z m -9.525,-3.175 h 7.9375 v -0.79375 -0.79375 H 889 881.0625 v 0.79375 0.79375 z m 30.95625,-1.5875 h 8.73125 v -0.79375 -0.79375 h -8.73125 -8.73125 v 0.79375 0.79375 z m 20.6375,0 h 3.96875 v -0.79375 -0.79375 h -3.96875 -3.96875 v 0.79375 0.79375 z m -42.8625,-4.7625 h 7.14375 v -0.79375 -0.79375 h -7.14375 -7.14375 v 0.79375 0.79375 z m 21.43125,0 h 4.7625 v -0.79375 -0.79375 H 919.1625 914.4 v 0.79375 0.79375 z m -39.6875,-1.5875 h 6.35 v -0.79375 -0.79375 h -6.35 -6.35 v 0.79375 0.79375 z m 84.1375,95.25 h -3.175 v -50.00625 -50.00625 h 10.31875 10.31875 v 0.79375 0.79375 h 2.38125 2.38125 v -0.79375 -0.79375 h 2.38125 2.38125 v 0.79375 0.79375 h 0.79375 0.79375 v 2.38125 2.38125 h 0.79375 0.79375 v 2.38125 2.38125 h 0.79375 0.79375 v 2.38125 2.38125 h 0.79375 0.79375 v 2.38125 2.38125 h 0.79375 0.79375 v 2.38125 2.38125 h 0.79375 0.79375 v 2.38125 2.38125 h 0.7937 0.7938 v 2.38125 2.38125 h 0.7937 0.7938 v 2.38125 2.38125 h 0.7937 0.7938 v 2.38125 2.38125 h 0.7937 0.7938 v 2.38125 2.38125 h 0.7937 0.7938 v 2.38125 2.38125 h 0.7937 0.7938 v -26.9875 -26.9875 h 3.175 3.175 v 0.79375 0.79375 h 1.5875 1.5875 v -0.79375 -0.79375 h 5.5562 5.5563 v 50.00625 50.00625 h -2.3813 -2.3812 v -0.79375 -0.79375 h -0.7938 -0.7937 v 0.79375 0.79375 h -7.1438 -7.1437 v -0.79375 -0.79375 h -2.3813 -2.3812 v 0.79375 0.79375 h -2.3813 -2.3812 v -0.79375 -0.79375 h -0.79375 -0.79375 v -2.38125 -2.38125 H 997.74375 996.95 v -2.38125 -2.38125 h -0.79375 -0.79375 v -2.38125 -2.38125 h -0.79375 -0.79375 v -2.38125 -2.38125 h -0.79375 -0.79375 v -2.38125 -2.38125 H 991.39375 990.6 v -2.38125 -2.38125 h -0.79375 -0.79375 v -2.38125 -2.38125 h -0.79375 -0.79375 v -2.38125 -2.38125 h -0.79375 -0.79375 v -2.38125 -2.38125 H 985.04375 984.25 v -2.38125 -2.38125 h -0.79375 -0.79375 v -2.38125 -2.38125 h -0.79375 -0.79375 v 26.9875 26.9875 h -5.55625 -5.55625 v -0.79375 -0.79375 h -1.5875 -1.5875 v 0.79375 0.79375 z m 13.49375,-11.1125 H 977.9 v -4.7625 -4.7625 h -0.79375 -0.79375 v 4.7625 4.7625 z m 23.81245,-3.175 h 0.7938 v -2.38125 -2.38125 h -0.7938 -0.7937 v -2.38125 -2.38125 h -0.79375 -0.79375 v 2.38125 2.38125 h 0.79375 0.79375 v 2.38125 2.38125 z m 19.05,-1.5875 h 0.7938 v -3.96875 -3.96875 h -0.7938 -0.7937 v 3.96875 3.96875 z m 6.35,0 h 0.7938 v -5.55625 -5.55625 h -0.7938 -0.7937 v 5.55625 5.55625 z m -61.91245,-1.5875 H 965.2 v -6.35 -6.35 h -0.79375 -0.79375 v 6.35 6.35 z m 4.7625,-1.5875 h 0.79375 v -4.7625 -4.7625 h -0.79375 -0.79375 v 4.7625 4.7625 z m 42.86245,0 h 0.7938 v -2.38125 -2.38125 h -0.7938 -0.7937 v -2.38125 -2.38125 h -0.7938 -0.7937 v 2.38125 2.38125 h 0.7937 0.7938 v 2.38125 2.38125 z m -7.9375,-3.175 h 0.7938 v -2.38125 -2.38125 h -0.7938 -0.7937 v -2.38125 -2.38125 h -0.7938 -0.7937 v 2.38125 2.38125 h 0.7937 0.7938 v 2.38125 2.38125 z m -30.16245,-1.5875 h 0.79375 v -5.55625 -5.55625 h -0.79375 -0.79375 v 5.55625 5.55625 z m 42.86245,-1.5875 h 0.7938 v -5.55625 -5.55625 H 1016.7937 1016 v 5.55625 5.55625 z m 6.35,-1.5875 h 0.7938 v -5.55625 -5.55625 h -0.7938 -0.7937 v 5.55625 5.55625 z m -26.98745,-7.9375 H 996.95 v -2.38125 -2.38125 h -0.79375 -0.79375 v -2.38125 -2.38125 h -0.79375 -0.79375 v -2.38125 -2.38125 h -0.79375 -0.79375 v -2.38125 -2.38125 H 991.39375 990.6 v -2.38125 -2.38125 h -0.79375 -0.79375 v 2.38125 2.38125 h 0.79375 0.79375 v 2.38125 2.38125 h 0.79375 0.79375 v 2.38125 2.38125 h 0.79375 0.79375 v 2.38125 2.38125 h 0.79375 0.79375 v 2.38125 2.38125 z m -26.9875,-1.5875 h 0.79375 v -6.35 -6.35 h -0.79375 -0.79375 v 6.35 6.35 z m 49.21245,-3.175 h 0.7938 v -5.55625 -5.55625 h -0.7938 -0.7937 v 5.55625 5.55625 z m -15.875,-1.5875 h 0.7938 v -2.38125 -2.38125 h -0.7938 -0.7937 v -2.38125 -2.38125 h -0.7938 -0.7937 v -2.38125 -2.38125 h -0.79375 -0.79375 v 2.38125 2.38125 h 0.79375 0.79375 v 2.38125 2.38125 h 0.7937 0.7938 v 2.38125 2.38125 z m -25.39995,-1.5875 H 977.9 v -5.55625 -5.55625 h -0.79375 -0.79375 v 5.55625 5.55625 z m 36.51245,-1.5875 h 0.7938 v -4.7625 -4.7625 h -0.7938 -0.7937 v 4.7625 4.7625 z m -49.21245,-1.5875 H 965.2 v -7.9375 -7.9375 h -0.79375 -0.79375 v 7.9375 7.9375 z m 61.91245,0 h 0.7938 v -5.55625 -5.55625 h -0.7938 -0.7937 v 5.55625 5.55625 z m -4.7625,-9.525 h 0.7938 v -4.7625 -4.7625 h -0.7938 -0.7937 v 4.7625 4.7625 z m -50.79995,-3.175 H 971.55 v -5.55625 -5.55625 h -0.79375 -0.79375 v 5.55625 5.55625 z m 23.8125,0 h 0.79375 v -2.38125 -2.38125 h -0.79375 -0.79375 v -2.38125 -2.38125 h -0.79375 -0.79375 v 2.38125 2.38125 h 0.79375 0.79375 v 2.38125 2.38125 z m 20.63745,-1.5875 H 1016 v -8.73125 -8.73125 h -0.7938 -0.7937 v 8.73125 8.73125 z m -28.57495,-6.35 h 0.79375 v -2.38125 -2.38125 h -0.79375 -0.79375 v -2.38125 -2.38125 H 985.04375 984.25 v -2.38125 -2.38125 h -0.79375 -0.79375 v 2.38125 2.38125 h 0.79375 0.79375 v 2.38125 2.38125 h 0.79375 0.79375 v 2.38125 2.38125 z m 38.09995,0 h 0.7938 v -5.55625 -5.55625 h -0.7938 -0.7937 v 5.55625 5.55625 z m -57.14995,-6.35 h 0.79375 v -4.7625 -4.7625 h -0.79375 -0.79375 v 4.7625 4.7625 z m 52.38745,-1.5875 h 0.7938 v -5.55625 -5.55625 h -0.7938 -0.7937 v 5.55625 5.55625 z m -571.49995,52.3875 H 444.5 v -9.525 -9.525 h -4.7625 -4.7625 v -4.7625 -4.7625 h 12.7 12.7 v 4.7625 4.7625 h -3.96875 -3.96875 v 9.525 9.525 z m 0,-7.9375 h 0.79375 v -3.96875 -3.96875 h -0.79375 -0.79375 v 3.96875 3.96875 z m 7.9375,-12.7 h 2.38125 v -0.79375 -0.79375 h -2.38125 -2.38125 v 0.79375 0.79375 z m -14.2875,-1.5875 h 3.96875 v -0.79375 -0.79375 H 442.11875 438.15 v 0.79375 0.79375 z m 8.73125,-1.5875 h 3.175 v -0.79375 -0.79375 h -3.175 -3.175 v 0.79375 0.79375 z m 15.875,23.8125 h -4.7625 v -14.2875 -14.2875 h 4.7625 4.7625 v 4.7625 4.7625 h 3.96875 3.96875 v -4.7625 -4.7625 h 4.7625 4.7625 v 14.2875 14.2875 h -2.38125 -2.38125 v -0.79375 -0.79375 H 483.39375 482.6 v 0.79375 0.79375 h -1.5875 -1.5875 v -5.55625 -5.55625 h -3.96875 -3.96875 v 5.55625 5.55625 z m 2.38125,-3.175 H 469.9 v -2.38125 -2.38125 h -0.79375 -0.79375 v 2.38125 2.38125 z m -4.7625,-3.175 h 0.79375 v -3.175 -3.175 H 464.34375 463.55 v 3.175 3.175 z m 3.175,-4.7625 h 0.79375 v -2.38125 -2.38125 h -0.79375 -0.79375 v 2.38125 2.38125 z m 19.05,0 h 0.79375 v -1.5875 -1.5875 h -0.79375 -0.79375 v 1.5875 1.5875 z m -13.49375,-1.5875 h 1.5875 v -0.79375 -0.79375 h -1.5875 -1.5875 v 0.79375 0.79375 z m 10.31875,0 h 0.79375 v -3.175 -3.175 H 483.39375 482.6 v 3.175 3.175 z m -5.55625,-1.5875 h 1.5875 v -0.79375 -0.79375 h -1.5875 -1.5875 v 0.79375 0.79375 z m -11.90625,-3.175 h 0.79375 v -3.175 -3.175 h -0.79375 -0.79375 v 3.175 3.175 z m 20.6375,-3.175 h 0.79375 v -2.38125 -2.38125 h -0.79375 -0.79375 v 2.38125 2.38125 z m 16.66875,20.6375 h -12.7 v -4.7625 -4.7625 h 0.79375 0.79375 v -4.7625 -4.7625 h -0.79375 -0.79375 v -4.7625 -4.7625 h 12.7 12.7 v 4.7625 4.7625 H 508 500.0625 v 0.79375 0.79375 H 504.03125 508 v 3.175 3.175 h -3.96875 -3.96875 v 0.79375 0.79375 H 508 h 7.9375 v 4.7625 4.7625 z m -4.7625,-1.5875 h 3.175 v -0.79375 -0.79375 h -3.175 -3.175 v 0.79375 0.79375 z m 1.5875,-3.175 h 4.7625 v -0.79375 -0.79375 H 500.0625 495.3 v 0.79375 0.79375 z m 11.90625,-1.5875 H 514.35 v -0.79375 -0.79375 h -2.38125 -2.38125 v 0.79375 0.79375 z m -11.90625,-6.35 h 1.5875 v -0.79375 -0.79375 h -1.5875 -1.5875 v 0.79375 0.79375 z m 4.7625,-1.5875 h 1.5875 v -0.79375 -0.79375 h -1.5875 -1.5875 v 0.79375 0.79375 z m -10.31875,-3.175 H 495.3 v -0.79375 -0.79375 h -0.79375 -0.79375 v 0.79375 0.79375 z m 8.73125,-4.7625 h 3.175 v -0.79375 -0.79375 h -3.175 -3.175 v 0.79375 0.79375 z m -7.14375,-3.175 h 2.38125 v -0.79375 -0.79375 h -2.38125 -2.38125 v 0.79375 0.79375 z m 9.525,0 H 508 v -0.79375 -0.79375 h -2.38125 -2.38125 v 0.79375 0.79375 z m -38.89375,-6.35 h -12.7 v -4.7625 -4.7625 h 0.79375 0.79375 v -4.7625 -4.7625 h -0.79375 -0.79375 v -2.38125 -2.38125 h 0.79375 0.79375 v -0.79375 -0.79375 h -0.79375 -0.79375 v -1.5875 -1.5875 h 12.7 12.7 v 4.7625 4.7625 h -0.79375 -0.79375 v 4.7625 4.7625 h 0.79375 0.79375 v 4.7625 4.7625 z m 7.9375,-3.175 h 3.175 v -0.79375 -0.79375 h -3.175 -3.175 v 0.79375 0.79375 z m -11.90625,-1.5875 h 5.55625 v -0.79375 -0.79375 H 462.75625 457.2 v 0.79375 0.79375 z m -3.175,-4.7625 h 0.79375 v -0.79375 -0.79375 h -0.79375 -0.79375 v 0.79375 0.79375 z m 7.14375,0 h 3.175 v -4.7625 -4.7625 h -3.175 -3.175 v 4.7625 4.7625 z m 5.55625,0 h 0.79375 v -1.5875 -1.5875 h -0.79375 -0.79375 v 1.5875 1.5875 z m -14.2875,-4.7625 h 0.79375 v -2.38125 -2.38125 H 457.99375 457.2 v 2.38125 2.38125 z m 15.875,0 h 0.79375 v -2.38125 -2.38125 h -0.79375 -0.79375 v 2.38125 2.38125 z m -7.14375,-7.9375 h 3.175 v -0.79375 -0.79375 h -3.175 -3.175 v 0.79375 0.79375 z m 7.9375,-1.5875 h 3.175 v -0.79375 -0.79375 h -3.175 -3.175 v 0.79375 0.79375 z m 11.90625,23.8125 H 482.6 v -9.525 -9.525 h -0.79375 -0.79375 v -4.7625 -4.7625 h 12.7 12.7 v 4.7625 4.7625 h -7.9375 -7.9375 v 1.5875 1.5875 h 3.96875 3.96875 v 3.175 3.175 h -3.96875 -3.96875 v 4.7625 4.7625 z m -1.5875,-7.9375 h 0.79375 v -3.96875 -3.96875 h -0.79375 -0.79375 v 3.96875 3.96875 z m 6.35,-4.7625 h 2.38125 v -0.79375 -0.79375 H 491.33125 488.95 v 0.79375 0.79375 z m 0,-9.525 h 2.38125 v -0.79375 -0.79375 H 491.33125 488.95 v 0.79375 0.79375 z m 4.7625,-3.175 h 3.96875 v -0.79375 -0.79375 h -3.96875 -3.96875 v 0.79375 0.79375 z"
       style="fill:#392410;stroke-width:0.26458332" />
    <path
       inkscape:connector-curvature="0"
       id="path850"
       d="m 731.04375,295.41248 h -2.38125 v -0.79375 -0.79375 h -0.79375 -0.79375 v -2.38125 -2.38125 h -0.79375 -0.79375 v -2.38125 -2.38125 H 724.69375 723.9 v -2.38125 -2.38125 h -0.79375 -0.79375 v -2.38125 -2.38125 h -0.79375 -0.79375 v -2.38125 -2.38125 h -0.79375 -0.79375 v -2.38125 -2.38125 H 718.34375 717.55 v -2.38125 -2.38125 h -0.79375 -0.79375 v -2.38125 -2.38125 h -0.79375 -0.79375 v -2.38125 -2.38125 h -0.79375 -0.79375 v -2.38125 -2.38125 H 711.99375 711.2 v -2.38125 -2.38125 h -0.79375 -0.79375 v -2.38125 -2.38125 h -0.79375 -0.79375 v -2.38125 -2.38125 h -0.79375 -0.79375 v -2.38125 -2.38125 H 705.64375 704.85 v -2.38125 -2.38125 h -0.79375 -0.79375 v -2.38125 -2.38125 h -0.79375 -0.79375 v -2.38125 -2.38125 h -0.79375 -0.79375 v -2.38125 -2.38125 H 699.29375 698.5 v -3.175 -3.175 h 0.79375 0.79375 v -0.79375 -0.79375 h 2.38125 2.38125 v -0.79375 -0.79375 h 2.38125 2.38125 v -0.79375 -0.79375 h 2.38125 2.38125 v -0.79375 -0.79375 h 2.38125 2.38125 v 0.79375 0.79375 h 0.79375 0.79375 v 2.38125 2.38125 h 0.79375 0.79375 v 2.38125 2.38125 h 0.79375 0.79375 v 2.38125 2.38125 h 0.79375 0.79375 v 2.38125 2.38125 h 0.79375 0.79375 v 2.38125 2.38125 h 0.79375 0.79375 v 2.38125 2.38125 h 0.79375 0.79375 v 2.38125 2.38125 h 0.79375 0.79375 v 2.38125 2.38125 h 0.79375 0.79375 v 2.38125 2.38125 h 0.79375 0.79375 v 2.38125 2.38125 h 0.79375 0.79375 v 2.38125 2.38125 h 0.79375 0.79375 v 2.38125 2.38125 h 0.79375 0.79375 v 2.38125 2.38125 h 0.79375 0.79375 v -2.38125 -2.38125 h 0.79375 0.79375 v -2.38125 -2.38125 h 0.79375 0.79375 v -2.38125 -2.38125 h 0.79375 0.79375 v -2.38125 -2.38125 h 0.79375 0.79375 v -2.38125 -2.38125 h 0.79375 0.79375 v -2.38125 -2.38125 h 0.79375 0.79375 v -2.38125 -2.38125 h 0.79375 0.79375 v -2.38125 -2.38125 h 0.79375 0.79375 v -2.38125 -2.38125 h 0.79375 0.79375 v -2.38125 -2.38125 h 0.79375 0.79375 v -2.38125 -2.38125 h 0.79375 0.79375 v -2.38125 -2.38125 h 0.79375 0.79375 v -2.38125 -2.38125 H 761.20625 762 v -0.79375 -0.79375 h 2.38125 2.38125 v 0.79375 0.79375 h 0.79375 0.79375 v 1.5875 1.5875 h 1.5875 1.5875 v 0.79375 0.79375 h 1.5875 1.5875 v -0.79375 -0.79375 h 3.175 3.175 v 0.79375 0.79375 h 0.79375 0.79375 v 3.175 3.175 H 781.84375 781.05 v 2.38125 2.38125 h -0.79375 -0.79375 v 2.38125 2.38125 h -0.79375 -0.79375 v 2.38125 2.38125 h -0.79375 -0.79375 v 2.38125 2.38125 H 775.49375 774.7 v 2.38125 2.38125 h -0.79375 -0.79375 v 2.38125 2.38125 h -0.79375 -0.79375 v 2.38125 2.38125 h -0.79375 -0.79375 v 2.38125 2.38125 H 769.14375 768.35 v 2.38125 2.38125 h -0.79375 -0.79375 v 2.38125 2.38125 h -0.79375 -0.79375 v 2.38125 2.38125 h -0.79375 -0.79375 v 2.38125 2.38125 H 762.79375 762 v 2.38125 2.38125 h -0.79375 -0.79375 v 2.38125 2.38125 h -0.79375 -0.79375 v 2.38125 2.38125 h -0.79375 -0.79375 v 2.38125 2.38125 H 756.44375 755.65 v 2.38125 2.38125 h -0.79375 -0.79375 v 2.38125 2.38125 h -0.79375 -0.79375 v 0.79375 0.79375 h -2.38125 -2.38125 v -0.79375 -0.79375 H 745.33125 742.95 v -0.79375 -0.79375 h -0.79375 -0.79375 v -0.79375 -0.79375 h -1.5875 -1.5875 v 1.5875 1.5875 h -2.38125 -2.38125 v 0.79375 0.79375 z m 0,-3.175 h 2.38125 v -2.38125 -2.38125 h 1.5875 1.5875 v -2.38125 -2.38125 h 0.79375 0.79375 v 2.38125 2.38125 h 1.5875 1.5875 v -1.5875 -1.5875 h 0.79375 0.79375 v 3.175 3.175 h 1.5875 1.5875 v -2.38125 -2.38125 h 0.79375 0.79375 v 3.175 3.175 h 2.38125 2.38125 v -2.38125 -2.38125 h 0.79375 0.79375 v -2.38125 -2.38125 h 0.79375 0.79375 v -2.38125 -2.38125 h 0.79375 0.79375 v -2.38125 -2.38125 h 0.79375 0.79375 v -2.38125 -2.38125 h 0.79375 0.79375 v -2.38125 -2.38125 H 761.20625 762 v -2.38125 -2.38125 h 0.79375 0.79375 v -2.38125 -2.38125 h 0.79375 0.79375 v -2.38125 -2.38125 h 0.79375 0.79375 v -2.38125 -2.38125 h 0.79375 0.79375 v -2.38125 -2.38125 h 0.79375 0.79375 v -2.38125 -2.38125 h 0.79375 0.79375 v -2.38125 -2.38125 h 0.79375 0.79375 v -2.38125 -2.38125 h 0.79375 0.79375 v -2.38125 -2.38125 h 0.79375 0.79375 v -2.38125 -2.38125 h 0.79375 0.79375 v -2.38125 -2.38125 h 0.79375 0.79375 v -2.38125 -2.38125 h 0.79375 0.79375 v -2.38125 -2.38125 h -2.38125 -2.38125 v 1.5875 1.5875 H 775.49375 774.7 v -0.79375 -0.79375 h -1.5875 -1.5875 v -0.79375 -0.79375 h -1.5875 -1.5875 v 0.79375 0.79375 h -0.79375 -0.79375 v -3.175 -3.175 H 764.38125 762 v 2.38125 2.38125 h -0.79375 -0.79375 v 2.38125 2.38125 h -0.79375 -0.79375 v 2.38125 2.38125 h -0.79375 -0.79375 v 2.38125 2.38125 H 756.44375 755.65 v 2.38125 2.38125 h -0.79375 -0.79375 v 2.38125 2.38125 h -0.79375 -0.79375 v 2.38125 2.38125 h -0.79375 -0.79375 v 2.38125 2.38125 H 750.09375 749.3 v 2.38125 2.38125 h -0.79375 -0.79375 v 2.38125 2.38125 h -0.79375 -0.79375 v 2.38125 2.38125 h -0.79375 -0.79375 v 2.38125 2.38125 H 743.74375 742.95 v 2.38125 2.38125 h -0.79375 -0.79375 v 2.38125 2.38125 h -0.79375 -0.79375 v -2.38125 -2.38125 h -0.79375 -0.79375 v -2.38125 -2.38125 H 737.39375 736.6 v -2.38125 -2.38125 h -0.79375 -0.79375 v -2.38125 -2.38125 h -0.79375 -0.79375 v -2.38125 -2.38125 h -0.79375 -0.79375 v -2.38125 -2.38125 H 731.04375 730.25 v -2.38125 -2.38125 h -0.79375 -0.79375 v -2.38125 -2.38125 h -0.79375 -0.79375 v -2.38125 -2.38125 h -0.79375 -0.79375 v -2.38125 -2.38125 H 724.69375 723.9 v -2.38125 -2.38125 h -0.79375 -0.79375 v -2.38125 -2.38125 h -0.79375 -0.79375 v -2.38125 -2.38125 h -0.79375 -0.79375 v -2.38125 -2.38125 h -2.38125 -2.38125 v 3.175 3.175 h -0.79375 -0.79375 v -2.38125 -2.38125 H 711.2 709.6125 v 0.79375 0.79375 H 707.23125 704.85 v 0.79375 0.79375 h -2.38125 -2.38125 v 2.38125 2.38125 h 0.79375 0.79375 v 2.38125 2.38125 h 0.79375 0.79375 v 2.38125 2.38125 h 0.79375 0.79375 v 2.38125 2.38125 h 0.79375 0.79375 v 2.38125 2.38125 h 0.79375 0.79375 v 2.38125 2.38125 h 0.79375 0.79375 v 2.38125 2.38125 h 0.79375 0.79375 v 2.38125 2.38125 h 0.79375 0.79375 v 2.38125 2.38125 h 0.79375 0.79375 v 2.38125 2.38125 h 0.79375 0.79375 v 2.38125 2.38125 h 0.79375 0.79375 v 2.38125 2.38125 h 0.79375 0.79375 v 2.38125 2.38125 h 0.79375 0.79375 v 2.38125 2.38125 h 0.79375 0.79375 v 2.38125 2.38125 h 0.79375 0.79375 v 2.38125 2.38125 h 0.79375 0.79375 v 2.38125 2.38125 h 0.79375 0.79375 v 2.38125 2.38125 h 0.79375 0.79375 v 2.38125 2.38125 z m 1.5875,-4.7625 h -0.79375 v -2.38125 -2.38125 h 0.79375 0.79375 v -2.38125 -2.38125 h 0.79375 0.79375 v -2.38125 -2.38125 h 0.79375 0.79375 v -2.38125 -2.38125 h 0.79375 0.79375 v -2.38125 -2.38125 h 0.79375 0.79375 v 2.38125 2.38125 h -0.79375 -0.79375 v 2.38125 2.38125 H 737.39375 736.6 v 2.38125 2.38125 h -0.79375 -0.79375 v 2.38125 2.38125 h -0.79375 -0.79375 v 2.38125 2.38125 z m 15.875,-1.5875 h -0.79375 v -2.38125 -2.38125 h 0.79375 0.79375 v 2.38125 2.38125 z m -4.7625,-1.5875 H 742.95 v -2.38125 -2.38125 h 0.79375 0.79375 v -2.38125 -2.38125 h 0.79375 0.79375 v 2.38125 2.38125 h -0.79375 -0.79375 v 2.38125 2.38125 z m -4.7625,-1.5875 h -0.79375 v -2.38125 -2.38125 h 0.79375 0.79375 v -2.38125 -2.38125 h 0.79375 0.79375 v -2.38125 -2.38125 h 0.79375 0.79375 v 2.38125 2.38125 h -0.79375 -0.79375 v 2.38125 2.38125 h -0.79375 -0.79375 v 2.38125 2.38125 z m 30.1625,-58.7375 H 768.35 v -2.38125 -2.38125 h 0.79375 0.79375 v -2.38125 -2.38125 h 0.79375 0.79375 v -2.38125 -2.38125 h 0.79375 0.79375 v -2.38125 -2.38125 h 0.79375 0.79375 v 2.38125 2.38125 h -0.79375 -0.79375 v 2.38125 2.38125 h -0.79375 -0.79375 v 2.38125 2.38125 h -0.79375 -0.79375 v 2.38125 2.38125 z m -60.325,-7.9375 H 708.025 v -2.38125 -2.38125 h -0.79375 -0.79375 v -2.38125 -2.38125 H 705.64375 704.85 v -2.38125 -2.38125 h 0.79375 0.79375 v 2.38125 2.38125 h 0.79375 0.79375 v 2.38125 2.38125 h 0.79375 0.79375 v 2.38125 2.38125 z m 7.9375,-3.175 h -0.79375 v -2.38125 -2.38125 h -0.79375 -0.79375 v -2.38125 -2.38125 h 0.79375 0.79375 v 2.38125 2.38125 h 0.79375 0.79375 v 2.38125 2.38125 z m 47.625,0 h -0.79375 v -2.38125 -2.38125 h 0.79375 0.79375 v -2.38125 -2.38125 h 0.79375 0.79375 v 2.38125 2.38125 h -0.79375 -0.79375 v 2.38125 2.38125 z m -731.8375,80.9625 H 30.1625 v -39.6875 -39.6875 H 15.875 1.5875 v -7.9375 -7.9375 H 2.38125 3.175 v -0.79375 -0.79375 H 2.38125 1.5875 v -2.38125 -2.38125 H 41.275 80.9625 v 11.1125 11.1125 H 65.88125 50.8 v 39.6875 39.6875 H 44.45 38.1 v -0.79375 -0.79375 H 36.5125 34.925 v 0.79375 0.79375 z m 0,-3.175 h 0.79375 v -3.175 -3.175 h 0.79375 0.79375 v 2.38125 2.38125 H 36.5125 38.1 v -4.7625 -4.7625 h 0.79375 0.79375 v 5.55625 5.55625 H 42.06875 44.45 v -4.7625 -4.7625 h 0.79375 0.79375 v 4.7625 4.7625 h 1.5875 1.5875 v -38.1 -38.1 H 40.48125 31.75 v 38.1 38.1 z m 8.73125,-79.375 h 38.1 v -1.5875 -1.5875 H 76.99375 74.6125 v -0.79375 -0.79375 h 2.38125 2.38125 v -2.38125 -2.38125 H 77.7875 76.2 v -0.79375 -0.79375 h 1.5875 1.5875 v -1.5875 -1.5875 H 76.2 73.025 v -0.79375 -0.79375 h 3.175 3.175 v -0.79375 -0.79375 h -38.1 -38.1 v 0.79375 0.79375 h 7.9375 7.9375 v 0.79375 0.79375 H 11.90625 4.7625 v 0.79375 0.79375 H 3.96875 3.175 v 1.5875 1.5875 h 6.35 6.35 v 0.79375 0.79375 h -6.35 -6.35 v 1.5875 1.5875 H 7.9375 12.7 v 0.79375 0.79375 H 7.9375 3.175 v 1.5875 1.5875 z m 56.35625,82.55 H 88.9 v -0.79375 -0.79375 H 87.3125 85.725 V 253.34373 214.44998 H 84.93125 84.1375 v -11.1125 -11.1125 h 39.6875 39.6875 v 11.1125 11.1125 h -0.79375 -0.79375 v 39.6875 39.6875 h -2.38125 -2.38125 v -0.79375 -0.79375 h -3.175 -3.175 v 0.79375 0.79375 H 146.05 141.2875 V 272.39373 250.96248 H 123.825 106.3625 v 21.43125 21.43125 z m -4.7625,-3.175 H 95.25 v -6.35 -6.35 h 0.79375 0.79375 v 6.35 6.35 h 1.5875 1.5875 v -1.5875 -1.5875 h 0.79375 0.79375 v 1.5875 1.5875 h 1.5875 1.5875 v -19.84375 -19.84375 h -2.38125 -2.38125 v -4.7625 -4.7625 h 0.79375 0.79375 v -0.79375 -0.79375 h -0.79375 -0.79375 v -3.175 -3.175 h 2.38125 2.38125 v -9.525 -9.525 H 96.04375 87.3125 v 37.30625 37.30625 H 88.10625 88.9 v -3.96875 -3.96875 h 0.79375 0.79375 v 4.7625 4.7625 z m 51.59375,0 h 1.5875 v -3.175 -3.175 h 0.79375 0.79375 v 3.175 3.175 h 0.79375 0.79375 v -5.55625 -5.55625 h 0.79375 0.79375 v 4.7625 4.7625 h 3.175 3.175 v -5.55625 -5.55625 h 0.79375 0.79375 v 6.35 6.35 h 0.79375 0.79375 v -38.1 -38.1 h -8.73125 -8.73125 v 9.525 9.525 h 2.38125 2.38125 v 8.73125 8.73125 h -2.38125 -2.38125 v 19.84375 19.84375 z m -20.6375,-42.8625 h 22.225 v -1.5875 -1.5875 h -3.96875 -3.96875 v -0.79375 -0.79375 h 3.96875 3.96875 v -0.79375 -0.79375 h -1.5875 -1.5875 v -0.79375 -0.79375 h 1.5875 1.5875 v -0.79375 -0.79375 h -5.55625 -5.55625 v -0.79375 -0.79375 h 5.55625 5.55625 v -0.79375 -0.79375 H 123.825 101.6 v 0.79375 0.79375 h 3.175 3.175 v 0.79375 0.79375 h -2.38125 -2.38125 v 1.5875 1.5875 h 0.79375 0.79375 v 0.79375 0.79375 H 103.1875 101.6 v 0.79375 0.79375 h 3.96875 3.96875 v 0.79375 0.79375 H 105.56875 101.6 v 0.79375 0.79375 z m 0,-14.2875 h 17.4625 v -9.525 -9.525 H 123.825 106.3625 v 9.525 9.525 z m 0,-22.225 h 38.1 v -0.79375 -0.79375 h -3.96875 -3.96875 v -0.79375 -0.79375 h 3.96875 3.96875 v -0.79375 -0.79375 h -7.9375 -7.9375 v -0.79375 -0.79375 h 7.9375 7.9375 v -1.5875 -1.5875 h -3.96875 -3.96875 v -0.79375 -0.79375 h 3.96875 3.96875 v -1.5875 -1.5875 h -5.55625 -5.55625 v -0.79375 -0.79375 h 5.55625 5.55625 v -0.79375 -0.79375 h -38.1 -38.1 v 1.5875 1.5875 h 5.55625 5.55625 v 0.79375 0.79375 H 91.28125 85.725 v 2.38125 2.38125 h 3.175 3.175 v 0.79375 0.79375 H 88.9 85.725 v 1.5875 1.5875 h 4.7625 4.7625 v 0.79375 0.79375 H 90.4875 85.725 v 0.79375 0.79375 z m 440.53125,82.55 H 561.975 v -39.6875 -39.6875 H 547.6875 533.4 v -7.9375 -7.9375 h 0.79375 0.79375 v -0.79375 -0.79375 H 534.19375 533.4 v -2.38125 -2.38125 h 39.6875 39.6875 v 11.1125 11.1125 H 597.69375 582.6125 v 39.6875 39.6875 h -6.35 -6.35 v -0.79375 -0.79375 h -1.5875 -1.5875 v 0.79375 0.79375 z m 0,-3.175 H 565.15 v -3.175 -3.175 h 0.79375 0.79375 v 2.38125 2.38125 h 1.5875 1.5875 v -4.7625 -4.7625 h 0.79375 0.79375 v 5.55625 5.55625 h 2.38125 2.38125 v -4.7625 -4.7625 h 0.79375 0.79375 v 4.7625 4.7625 h 1.5875 1.5875 v -38.1 -38.1 h -8.73125 -8.73125 v 38.1 38.1 z m 8.73125,-79.375 h 38.1 v -1.5875 -1.5875 h -2.38125 -2.38125 v -0.79375 -0.79375 h 2.38125 2.38125 v -2.38125 -2.38125 H 609.6 608.0125 v -0.79375 -0.79375 h 1.5875 1.5875 v -1.5875 -1.5875 h -3.175 -3.175 v -0.79375 -0.79375 h 3.175 3.175 v -0.79375 -0.79375 h -38.1 -38.1 v 0.79375 0.79375 h 7.9375 7.9375 v 0.79375 0.79375 h -7.14375 -7.14375 v 0.79375 0.79375 h -0.79375 -0.79375 v 1.5875 1.5875 h 6.35 6.35 v 0.79375 0.79375 h -6.35 -6.35 v 1.5875 1.5875 h 4.7625 4.7625 v 0.79375 0.79375 h -4.7625 -4.7625 v 1.5875 1.5875 z m 56.35625,82.55 h -8.73125 v -0.79375 -0.79375 h -1.5875 -1.5875 V 253.34373 214.44998 H 616.74375 615.95 v -11.1125 -11.1125 h 39.6875 39.6875 v 11.1125 11.1125 h -0.79375 -0.79375 v 39.6875 39.6875 h -2.38125 -2.38125 v -0.79375 -0.79375 h -3.175 -3.175 v 0.79375 0.79375 H 677.8625 673.1 V 272.39373 250.96248 H 655.6375 638.175 v 21.43125 21.43125 z m -4.7625,-3.175 h 2.38125 v -6.35 -6.35 h 0.79375 0.79375 v 6.35 6.35 h 1.5875 1.5875 v -1.5875 -1.5875 h 0.79375 0.79375 v 1.5875 1.5875 H 635 h 1.5875 v -19.84375 -19.84375 h -2.38125 -2.38125 v -4.7625 -4.7625 h 0.79375 0.79375 v -0.79375 -0.79375 h -0.79375 -0.79375 v -3.175 -3.175 h 2.38125 2.38125 v -9.525 -9.525 h -8.73125 -8.73125 v 37.30625 37.30625 h 0.79375 0.79375 v -3.96875 -3.96875 h 0.79375 0.79375 v 4.7625 4.7625 z m 51.59375,0 h 1.5875 v -3.175 -3.175 h 0.79375 0.79375 v 3.175 3.175 h 0.79375 0.79375 v -5.55625 -5.55625 h 0.79375 0.79375 v 4.7625 4.7625 h 3.175 3.175 v -5.55625 -5.55625 h 0.79375 0.79375 v 6.35 6.35 h 0.79375 0.79375 v -38.1 -38.1 h -8.73125 -8.73125 v 9.525 9.525 h 2.38125 2.38125 v 8.73125 8.73125 h -2.38125 -2.38125 v 19.84375 19.84375 z m -20.6375,-42.8625 h 22.225 v -1.5875 -1.5875 h -3.96875 -3.96875 v -0.79375 -0.79375 h 3.96875 3.96875 v -0.79375 -0.79375 h -1.5875 -1.5875 v -0.79375 -0.79375 h 1.5875 1.5875 v -0.79375 -0.79375 H 672.30625 666.75 v -0.79375 -0.79375 h 5.55625 5.55625 v -0.79375 -0.79375 h -22.225 -22.225 v 0.79375 0.79375 h 3.175 3.175 v 0.79375 0.79375 H 637.38125 635 v 1.5875 1.5875 h 0.79375 0.79375 v 0.79375 0.79375 H 635 633.4125 v 0.79375 0.79375 h 3.96875 3.96875 v 0.79375 0.79375 h -3.96875 -3.96875 v 0.79375 0.79375 z m 0,-14.2875 H 673.1 v -9.525 -9.525 H 655.6375 638.175 v 9.525 9.525 z m 0,-22.225 h 38.1 v -0.79375 -0.79375 H 689.76875 685.8 v -0.79375 -0.79375 h 3.96875 3.96875 v -0.79375 -0.79375 H 685.8 677.8625 v -0.79375 -0.79375 h 7.9375 7.9375 v -1.5875 -1.5875 H 689.76875 685.8 v -0.79375 -0.79375 h 3.96875 3.96875 v -1.5875 -1.5875 h -5.55625 -5.55625 v -0.79375 -0.79375 h 5.55625 5.55625 v -0.79375 -0.79375 h -38.1 -38.1 v 1.5875 1.5875 h 5.55625 5.55625 v 0.79375 0.79375 h -5.55625 -5.55625 v 2.38125 2.38125 h 3.175 3.175 v 0.79375 0.79375 h -3.175 -3.175 v 1.5875 1.5875 h 4.7625 4.7625 v 0.79375 0.79375 H 622.3 617.5375 v 0.79375 0.79375 z m -449.2625,80.9625 h -39.6875 v -3.96875 -3.96875 h 0.79375 0.79375 v -0.79375 -0.79375 h -0.79375 -0.79375 v -6.35 -6.35 h 0.79375 0.79375 v -38.1 -38.1 h 5.55625 5.55625 v 0.79375 0.79375 h 0.79375 0.79375 v -0.79375 -0.79375 h 3.96875 3.96875 v 38.1 38.1 h 28.575 28.575 v 11.1125 11.1125 z m 0,-3.175 h 38.1 v -1.5875 -1.5875 h -2.38125 -2.38125 v -0.79375 -0.79375 h 2.38125 2.38125 v -1.5875 -1.5875 h -5.55625 -5.55625 v -0.79375 -0.79375 h 5.55625 5.55625 v -2.38125 -2.38125 h -3.96875 -3.96875 v -0.79375 -0.79375 h 3.96875 3.96875 v -0.79375 -0.79375 h -38.1 -38.1 v 0.79375 0.79375 h 2.38125 2.38125 v 0.79375 0.79375 h -2.38125 -2.38125 v 2.38125 2.38125 h 4.7625 4.7625 v 0.79375 0.79375 h -3.96875 -3.96875 v 1.5875 1.5875 h 3.175 3.175 v 0.79375 0.79375 h -3.96875 -3.96875 v 1.5875 1.5875 z m -27.78125,-19.05 h 8.73125 v -37.30625 -37.30625 h -0.79375 -0.79375 v 3.175 3.175 H 184.94375 184.15 v -3.175 -3.175 h -1.5875 -1.5875 v 4.7625 4.7625 h -0.79375 -0.79375 v -4.7625 -4.7625 h -3.175 -3.175 v 5.55625 5.55625 H 172.24375 171.45 v -5.55625 -5.55625 h -0.79375 -0.79375 v 37.30625 37.30625 z m 110.33125,22.225 h -39.6875 v -3.96875 -3.96875 h 0.79375 0.79375 v -2.38125 -2.38125 h -0.79375 -0.79375 v -4.7625 -4.7625 h 0.79375 0.79375 v -27.78125 -27.78125 h -0.79375 -0.79375 v -11.1125 -11.1125 h 39.6875 39.6875 v 5.55625 5.55625 H 326.23125 323.85 v 0.79375 0.79375 h 2.38125 2.38125 v 4.7625 4.7625 h -28.575 -28.575 v 7.9375 7.9375 h 11.90625 11.90625 v 8.73125 8.73125 H 283.36875 271.4625 v 11.1125 11.1125 h 28.575 28.575 v 4.7625 4.7625 h -0.79375 -0.79375 v 0.79375 0.79375 h 0.79375 0.79375 v 5.55625 5.55625 z m 0,-3.175 h 38.1 v -0.79375 -0.79375 h -3.96875 -3.96875 v -0.79375 -0.79375 h 3.96875 3.96875 v -1.5875 -1.5875 h -6.35 -6.35 v -0.79375 -0.79375 h 5.55625 5.55625 v -1.5875 -1.5875 h -5.55625 -5.55625 v -0.79375 -0.79375 h 6.35 6.35 v -0.79375 -0.79375 h -3.175 -3.175 v -0.79375 -0.79375 h 3.175 3.175 v -0.79375 -0.79375 h -38.1 -38.1 v 0.79375 0.79375 h 2.38125 2.38125 v 0.79375 0.79375 h -2.38125 -2.38125 v 0.79375 0.79375 h 4.7625 4.7625 v 0.79375 0.79375 h -3.96875 -3.96875 v 3.175 3.175 h 7.14375 7.14375 v 0.79375 0.79375 h -7.9375 -7.9375 v 1.5875 1.5875 z m -27.78125,-19.05 h 8.73125 v -11.1125 -11.1125 h -3.96875 -3.96875 v -6.35 -6.35 h 1.5875 1.5875 v -2.38125 -2.38125 h 2.38125 2.38125 v -7.9375 -7.9375 h -8.73125 -8.73125 v 27.78125 27.78125 z m 17.4625,-25.4 h 15.08125 v -1.5875 -1.5875 h -4.7625 -4.7625 v -0.79375 -0.79375 h 4.7625 4.7625 v -1.5875 -1.5875 h -6.35 -6.35 v -0.79375 -0.79375 h 6.35 6.35 v -1.5875 -1.5875 H 280.19375 266.7 v 1.5875 1.5875 h 2.38125 2.38125 v 0.79375 0.79375 h -3.96875 -3.96875 v 0.79375 0.79375 h 2.38125 2.38125 v 0.79375 0.79375 h -2.38125 -2.38125 v 0.79375 0.79375 h 3.96875 3.96875 v 0.79375 0.79375 h -3.96875 -3.96875 v 0.79375 0.79375 z m 10.31875,-33.3375 h 38.1 v -2.38125 -2.38125 h -5.55625 -5.55625 v -0.79375 -0.79375 h 3.175 3.175 v -1.5875 -1.5875 H 316.70625 311.15 v -0.79375 -0.79375 h 7.9375 7.9375 v -1.5875 -1.5875 h -3.96875 -3.96875 v -0.79375 -0.79375 h 3.96875 3.96875 v -0.79375 -0.79375 h -38.1 -38.1 v 1.5875 1.5875 h 5.55625 5.55625 v 0.79375 0.79375 h -5.55625 -5.55625 v 2.38125 2.38125 h 5.55625 5.55625 v 0.79375 0.79375 h -5.55625 -5.55625 v 0.79375 0.79375 h 2.38125 2.38125 v 0.79375 0.79375 h -2.38125 -2.38125 v 1.5875 1.5875 z m 82.55,80.9625 h -39.6875 v -11.1125 -11.1125 H 359.56875 387.35 v -8.73125 -8.73125 H 359.56875 331.7875 v -11.1125 -11.1125 h 0.79375 0.79375 v -7.9375 -7.9375 h -0.79375 -0.79375 v -5.55625 -5.55625 h 0.79375 0.79375 v -2.38125 -2.38125 h -0.79375 -0.79375 v -3.175 -3.175 h 39.6875 39.6875 v 4.7625 4.7625 h -1.5875 -1.5875 v 0.79375 0.79375 h 1.5875 1.5875 v 5.55625 5.55625 h -28.575 -28.575 v 7.9375 7.9375 h 28.575 28.575 v 3.175 3.175 h -0.79375 -0.79375 v 1.5875 1.5875 h 0.79375 0.79375 v 6.35 6.35 h -1.5875 -1.5875 v 8.73125 8.73125 h 1.5875 1.5875 v 11.1125 11.1125 z m 0,-3.175 h 38.1 v -0.79375 -0.79375 h -3.96875 -3.96875 v -0.79375 -0.79375 h 3.96875 3.96875 v -1.5875 -1.5875 h -6.35 -6.35 v -0.79375 -0.79375 h 6.35 6.35 v -3.175 -3.175 h -0.79375 -0.79375 v 2.38125 2.38125 h -6.35 -6.35 v -0.79375 -0.79375 H 393.7 392.1125 v 0.79375 0.79375 H 389.73125 387.35 v -3.96875 -3.96875 H 360.3625 333.375 v 0.79375 0.79375 h 3.175 3.175 v 0.79375 0.79375 h -3.175 -3.175 v 1.5875 1.5875 h 4.7625 4.7625 v 0.79375 0.79375 h -4.7625 -4.7625 v 1.5875 1.5875 h 1.5875 1.5875 v 0.79375 0.79375 h -1.5875 -1.5875 v 2.38125 2.38125 z m 18.25625,-12.7 h 0.79375 v -3.175 -3.175 h 0.79375 0.79375 v 2.38125 2.38125 h 1.5875 1.5875 v -3.96875 -3.96875 h 0.79375 0.79375 v 4.7625 4.7625 h 2.38125 2.38125 v -3.96875 -3.96875 h 0.79375 0.79375 v 3.96875 3.96875 h 1.5875 1.5875 v -15.875 -15.875 h -2.38125 -2.38125 v 3.96875 3.96875 H 400.84375 400.05 v -3.96875 -3.96875 h -2.38125 -2.38125 v 3.175 3.175 H 394.49375 393.7 v -3.175 -3.175 h -2.38125 -2.38125 v 15.875 15.875 z m 19.05,-3.175 h 0.79375 v -0.79375 -0.79375 h -0.79375 -0.79375 v 0.79375 0.79375 z M 360.3625,249.37498 H 387.35 v -3.175 -3.175 h 10.31875 10.31875 v 3.175 3.175 h 0.79375 0.79375 v -3.96875 -3.96875 h -7.14375 -7.14375 v -0.79375 -0.79375 h 6.35 6.35 v -1.5875 -1.5875 H 404.01875 400.05 v -0.79375 -0.79375 h 4.7625 4.7625 v -1.5875 -1.5875 h -38.1 -38.1 v 1.5875 1.5875 h 4.7625 4.7625 v 0.79375 0.79375 h -4.7625 -4.7625 v 0.79375 0.79375 h 2.38125 2.38125 v 0.79375 0.79375 h -2.38125 -2.38125 v 1.5875 1.5875 h 7.14375 7.14375 v 0.79375 0.79375 h -7.14375 -7.14375 v 2.38125 2.38125 z m -16.66875,-19.05 h 8.73125 v -7.9375 -7.9375 h -8.73125 -8.73125 v 7.9375 7.9375 z m 27.78125,-19.05 h 38.1 v -0.79375 -0.79375 h -4.7625 -4.7625 v -0.79375 -0.79375 h 4.7625 4.7625 v -1.5875 -1.5875 h -5.55625 -5.55625 v -0.79375 -0.79375 h 3.96875 3.96875 v -1.5875 -1.5875 h -2.38125 -2.38125 v -0.79375 -0.79375 h 3.96875 3.96875 v -2.38125 -2.38125 h -38.1 -38.1 v 0.79375 0.79375 h 3.175 3.175 v 0.79375 0.79375 h -2.38125 -2.38125 v 3.175 3.175 h 4.7625 4.7625 v 0.79375 0.79375 h -5.55625 -5.55625 v 0.79375 0.79375 h 4.7625 4.7625 v 0.79375 0.79375 h -4.7625 -4.7625 v 1.5875 1.5875 z m 454.025,80.9625 h -39.6875 v -3.96875 -3.96875 h 0.79375 0.79375 v -2.38125 -2.38125 h -0.79375 -0.79375 v -3.96875 -3.96875 h 0.79375 0.79375 v -28.575 -28.575 h -0.79375 -0.79375 v -11.1125 -11.1125 H 825.5 865.1875 v 5.55625 5.55625 h -2.38125 -2.38125 v 0.79375 0.79375 h 2.38125 2.38125 v 4.7625 4.7625 h -28.575 -28.575 v 7.9375 7.9375 H 819.94375 831.85 v 8.73125 8.73125 H 819.94375 808.0375 v 11.1125 11.1125 h 28.575 28.575 v 4.7625 4.7625 H 864.39375 863.6 v 0.79375 0.79375 h 0.79375 0.79375 v 5.55625 5.55625 z m 0,-3.175 h 38.1 v -0.79375 -0.79375 h -3.96875 -3.96875 v -0.79375 -0.79375 h 3.96875 3.96875 v -1.5875 -1.5875 h -6.35 -6.35 v -0.79375 -0.79375 h 5.55625 5.55625 v -1.5875 -1.5875 H 856.45625 850.9 v -0.79375 -0.79375 h 6.35 6.35 v -0.79375 -0.79375 h -3.175 -3.175 v -0.79375 -0.79375 h 3.175 3.175 v -0.79375 -0.79375 h -38.1 -38.1 v 0.79375 0.79375 h 2.38125 2.38125 v 0.79375 0.79375 H 789.78125 787.4 v 0.79375 0.79375 h 4.7625 4.7625 v 0.79375 0.79375 h -3.96875 -3.96875 v 3.175 3.175 h 7.14375 7.14375 v 0.79375 0.79375 H 795.3375 787.4 v 1.5875 1.5875 z m -27.78125,-19.05 H 806.45 v -11.1125 -11.1125 h -3.96875 -3.96875 v -6.35 -6.35 h 1.5875 1.5875 v -2.38125 -2.38125 h 2.38125 2.38125 v -7.9375 -7.9375 h -8.73125 -8.73125 v 27.78125 27.78125 z m 17.4625,-25.4 h 15.08125 v -1.5875 -1.5875 H 825.5 820.7375 v -0.79375 -0.79375 h 4.7625 4.7625 v -1.5875 -1.5875 h -6.35 -6.35 v -0.79375 -0.79375 h 6.35 6.35 v -1.5875 -1.5875 H 816.76875 803.275 v 1.5875 1.5875 h 2.38125 2.38125 v 0.79375 0.79375 H 804.06875 800.1 v 0.79375 0.79375 h 2.38125 2.38125 v 0.79375 0.79375 H 802.48125 800.1 v 0.79375 0.79375 h 3.96875 3.96875 v 0.79375 0.79375 H 804.06875 800.1 v 0.79375 0.79375 z M 825.5,211.27498 h 38.1 v -2.38125 -2.38125 h -5.55625 -5.55625 v -0.79375 -0.79375 h 3.175 3.175 v -1.5875 -1.5875 h -5.55625 -5.55625 v -0.79375 -0.79375 h 7.9375 7.9375 v -1.5875 -1.5875 h -3.96875 -3.96875 v -0.79375 -0.79375 h 3.96875 3.96875 v -0.79375 -0.79375 h -38.1 -38.1 v 1.5875 1.5875 h 5.55625 5.55625 v 0.79375 0.79375 H 792.95625 787.4 v 2.38125 2.38125 h 5.55625 5.55625 v 0.79375 0.79375 H 792.95625 787.4 v 0.79375 0.79375 h 2.38125 2.38125 v 0.79375 0.79375 H 789.78125 787.4 v 1.5875 1.5875 z m 49.2125,80.9625 H 869.95 v -16.66875 -16.66875 h -0.79375 -0.79375 v -11.1125 -11.1125 h 0.79375 0.79375 v -11.1125 -11.1125 h -0.79375 -0.79375 v -4.7625 -4.7625 h 1.5875 1.5875 v -1.5875 -1.5875 h -1.5875 -1.5875 v -4.7625 -4.7625 h 39.6875 39.6875 v 11.1125 11.1125 H 946.94375 946.15 v 11.1125 11.1125 h 0.79375 0.79375 v 3.175 3.175 H 946.94375 946.15 v 0.79375 0.79375 h 0.79375 0.79375 v 7.14375 7.14375 H 946.94375 946.15 v 2.38125 2.38125 h 0.79375 0.79375 v 2.38125 2.38125 h 0.79375 0.79375 v 2.38125 2.38125 h 0.79375 0.79375 v 2.38125 2.38125 h 0.79375 0.79375 v 3.175 3.175 h -0.79375 -0.79375 v 0.79375 0.79375 H 948.53125 946.15 v 0.79375 0.79375 h -2.38125 -2.38125 v 0.79375 0.79375 h -2.38125 -2.38125 v 0.79375 0.79375 h -2.38125 -2.38125 v -0.79375 -0.79375 h -0.79375 -0.79375 v -2.38125 -2.38125 h -0.79375 -0.79375 v -2.38125 -2.38125 H 927.89375 927.1 v -2.38125 -2.38125 h -0.79375 -0.79375 v -2.38125 -2.38125 h -0.79375 -0.79375 v -2.38125 -2.38125 h -0.79375 -0.79375 v -3.175 -3.175 h -15.875 -15.875 v 16.66875 16.66875 h -3.175 -3.175 v -0.79375 -0.79375 h -2.38125 -2.38125 v 0.79375 0.79375 z m -2.38125,-3.175 h 0.79375 v -3.175 -3.175 h 0.79375 0.79375 v 3.175 3.175 h 1.5875 1.5875 v -5.55625 -5.55625 h 0.79375 0.79375 v 4.7625 4.7625 h 2.38125 2.38125 v -3.96875 -3.96875 h 0.79375 0.79375 v 4.7625 4.7625 H 887.4125 889 v -15.08125 -15.08125 h -8.73125 -8.73125 v 15.08125 15.08125 z m 61.9125,-1.5875 h 2.38125 v -2.38125 -2.38125 h 0.79375 0.79375 v 1.5875 1.5875 h 1.5875 1.5875 v -0.79375 -0.79375 h 2.38125 2.38125 v -2.38125 -2.38125 h 0.79375 0.79375 v 1.5875 1.5875 h 1.5875 1.5875 v -2.38125 -2.38125 h -0.79375 -0.79375 v -2.38125 -2.38125 h -0.79375 -0.79375 v -2.38125 -2.38125 H 946.94375 946.15 v -2.38125 -2.38125 h -0.79375 -0.79375 v -2.38125 -2.38125 H 934.24375 923.925 v 2.38125 2.38125 h 0.79375 0.79375 v 2.38125 2.38125 h 0.79375 0.79375 v 2.38125 2.38125 h 0.79375 0.79375 v 2.38125 2.38125 h 0.79375 0.79375 v 2.38125 2.38125 h 0.79375 0.79375 v 2.38125 2.38125 z m 1.5875,-4.7625 h -0.79375 v -2.38125 -2.38125 H 934.24375 933.45 v -2.38125 -2.38125 h 0.79375 0.79375 v 2.38125 2.38125 h 0.79375 0.79375 v 2.38125 2.38125 z m 9.525,-3.175 h -0.79375 v -2.38125 -2.38125 h 0.79375 0.79375 v 2.38125 2.38125 z M 908.05,255.72498 h 38.1 v -2.38125 -2.38125 h -7.14375 -7.14375 v -0.79375 -0.79375 h 7.14375 7.14375 v -1.5875 -1.5875 h -7.14375 -7.14375 v -0.79375 -0.79375 h 6.35 6.35 v -1.5875 -1.5875 h -3.96875 -3.96875 v -0.79375 -0.79375 h 4.7625 4.7625 v -0.79375 -0.79375 h -38.1 -38.1 v 0.79375 0.79375 h 1.5875 1.5875 v 0.79375 0.79375 h -1.5875 -1.5875 v 0.79375 0.79375 h 6.35 6.35 v 0.79375 0.79375 h -6.35 -6.35 v 2.38125 2.38125 h 7.9375 7.9375 v 0.79375 0.79375 h -7.9375 -7.9375 v 2.38125 2.38125 z m -27.78125,-19.05 H 889 v -11.1125 -11.1125 h -8.73125 -8.73125 v 11.1125 11.1125 z m 27.78125,0 h 17.4625 v -11.1125 -11.1125 H 908.05 890.5875 v 11.1125 11.1125 z m 27.78125,0 h 8.73125 v -11.1125 -11.1125 H 935.83125 927.1 v 11.1125 11.1125 z m -27.78125,-25.4 h 38.1 v -1.5875 -1.5875 h -7.9375 -7.9375 v -0.79375 -0.79375 h 7.9375 7.9375 v -3.175 -3.175 h -9.525 -9.525 v -0.79375 -0.79375 h 9.525 9.525 v -0.79375 -0.79375 h -7.14375 -7.14375 v -0.79375 -0.79375 h 7.14375 7.14375 v -0.79375 -0.79375 h -38.1 -38.1 v 2.38125 2.38125 h 2.38125 2.38125 v 0.79375 0.79375 h -0.79375 -0.79375 v 2.38125 2.38125 h 3.96875 3.96875 v 0.79375 0.79375 H 875.50625 869.95 v 2.38125 2.38125 z m 55.5625,80.9625 h -3.175 v -50.00625 -50.00625 h 10.31875 10.31875 v 0.79375 0.79375 h 2.38125 2.38125 v -0.79375 -0.79375 h 2.38125 2.38125 v 0.79375 0.79375 h 0.79375 0.79375 v 2.38125 2.38125 h 0.79375 0.79375 v 2.38125 2.38125 h 0.79375 0.79375 v 2.38125 2.38125 h 0.79375 0.79375 v 2.38125 2.38125 h 0.79375 0.79375 v 2.38125 2.38125 h 0.79375 0.79375 v 2.38125 2.38125 h 0.7938 0.7937 v 2.38125 2.38125 h 0.7937 0.7938 v 2.38125 2.38125 h 0.7937 0.7938 v 2.38125 2.38125 h 0.7937 0.7938 v 2.38125 2.38125 h 0.7937 0.7938 v 2.38125 2.38125 h 0.7937 0.7938 v -26.9875 -26.9875 h 3.175 3.175 v 0.79375 0.79375 h 1.5875 1.5875 v -0.79375 -0.79375 h 5.5562 5.5563 v 50.00625 50.00625 h -2.3813 -2.3812 v -0.79375 -0.79375 h -0.7938 -0.7937 v 0.79375 0.79375 h -7.1438 -7.1437 v -0.79375 -0.79375 h -2.3813 -2.3812 v 0.79375 0.79375 h -2.3813 -2.3812 v -0.79375 -0.79375 h -0.79375 -0.79375 v -2.38125 -2.38125 H 997.74375 996.95 v -2.38125 -2.38125 h -0.79375 -0.79375 v -2.38125 -2.38125 h -0.79375 -0.79375 v -2.38125 -2.38125 h -0.79375 -0.79375 v -2.38125 -2.38125 H 991.39375 990.6 v -2.38125 -2.38125 h -0.79375 -0.79375 v -2.38125 -2.38125 h -0.79375 -0.79375 v -2.38125 -2.38125 h -0.79375 -0.79375 v -2.38125 -2.38125 H 985.04375 984.25 v -2.38125 -2.38125 h -0.79375 -0.79375 v -2.38125 -2.38125 h -0.79375 -0.79375 v 26.9875 26.9875 h -5.55625 -5.55625 v -0.79375 -0.79375 h -1.5875 -1.5875 v 0.79375 0.79375 z m 0,-3.175 H 965.2 v -4.7625 -4.7625 h 0.79375 0.79375 v 3.96875 3.96875 h 1.5875 1.5875 v -5.55625 -5.55625 h 0.79375 0.79375 v 6.35 6.35 h 1.5875 1.5875 v -2.38125 -2.38125 h 0.79375 0.79375 v 2.38125 2.38125 h 1.5875 1.5875 v -30.1625 -30.1625 H 978.69375 977.9 v -2.38125 -2.38125 h -0.79375 -0.79375 v -2.38125 -2.38125 h -0.79375 -0.79375 v -2.38125 -2.38125 h -0.79375 -0.79375 v -2.38125 -2.38125 H 972.34375 971.55 v -2.38125 -2.38125 h -0.79375 -0.79375 v -3.175 -3.175 h 0.79375 0.79375 v 2.38125 2.38125 h 0.79375 0.79375 v 2.38125 2.38125 h 0.79375 0.79375 v 2.38125 2.38125 h 0.79375 0.79375 v 2.38125 2.38125 h 0.79375 0.79375 v 2.38125 2.38125 h 0.79375 0.79375 v 2.38125 2.38125 h 0.79375 0.79375 v 2.38125 2.38125 h 0.79375 0.79375 v 2.38125 2.38125 h 0.79375 0.79375 v 2.38125 2.38125 h 0.79375 0.79375 v 2.38125 2.38125 h 0.79375 0.79375 v 2.38125 2.38125 h 0.79375 0.79375 v 2.38125 2.38125 h 0.79375 0.79375 v 2.38125 2.38125 h 0.79375 0.79375 v 2.38125 2.38125 h 0.79375 0.79375 v 2.38125 2.38125 h 0.79375 0.79375 v 2.38125 2.38125 h 0.79375 0.79375 v 2.38125 2.38125 h 0.79375 0.79375 v 2.38125 2.38125 h 0.79375 0.79375 v 2.38125 2.38125 h 2.3812 2.3813 v -0.79375 -0.79375 h 2.3812 2.3813 v -3.175 -3.175 h 0.7937 0.7938 v 2.38125 2.38125 h 1.5875 1.5875 v -3.175 -3.175 h 0.7937 0.7938 v 2.38125 2.38125 h 1.5875 1.5875 v -2.38125 -2.38125 h 0.7937 0.7938 v 3.175 3.175 h -0.7938 -0.7937 v 0.79375 0.79375 h -2.3813 -2.3812 v 0.79375 0.79375 h 3.9687 3.9688 v -7.14375 -7.14375 h 0.7937 0.7938 v 6.35 6.35 h 0.7937 0.7938 v -2.38125 -2.38125 h 0.7937 0.7938 v 3.175 3.175 h 0.7937 0.7938 v -47.625 -47.625 h -1.5875 -1.5875 v 4.7625 4.7625 h -0.7938 -0.7937 v -4.7625 -4.7625 h -1.5875 -1.5875 v 3.96875 3.96875 h -0.7938 -0.7937 v -3.175 -3.175 H 1017.5875 1016 v 7.14375 7.14375 h -0.7938 -0.7937 v -7.9375 -7.9375 h -1.5875 -1.5875 v 30.95625 30.95625 h -0.7938 -0.7937 v -2.38125 -2.38125 h -0.7938 -0.7937 v -2.38125 -2.38125 h -0.7938 -0.7937 v -2.38125 -2.38125 h -0.7938 -0.7937 v -2.38125 -2.38125 h -0.7938 -0.7937 v -2.38125 -2.38125 h -0.7938 -0.7937 v -2.38125 -2.38125 h -0.7938 -0.7937 v -2.38125 -2.38125 h -0.79375 -0.79375 v -2.38125 -2.38125 H 997.74375 996.95 v -2.38125 -2.38125 h -0.79375 -0.79375 v -2.38125 -2.38125 h -0.79375 -0.79375 v -2.38125 -2.38125 h -0.79375 -0.79375 v -2.38125 -2.38125 H 991.39375 990.6 v -2.38125 -2.38125 h -2.38125 -2.38125 v 0.79375 0.79375 h -2.38125 -2.38125 v 0.79375 0.79375 h -2.38125 -2.38125 v -0.79375 -0.79375 h 1.5875 1.5875 v -0.79375 -0.79375 h -3.175 -3.175 v 1.5875 1.5875 h 1.5875 1.5875 v 0.79375 0.79375 H 973.93125 971.55 v -2.38125 -2.38125 h -2.38125 -2.38125 v 5.55625 5.55625 H 965.99375 965.2 v -5.55625 -5.55625 h -1.5875 -1.5875 v 47.625 47.625 z m 40.4812,-1.5875 H 1003.3 v -2.38125 -2.38125 h -0.7937 -0.7938 v -2.38125 -2.38125 h 0.7938 0.7937 v 2.38125 2.38125 h 0.7937 0.7938 v 2.38125 2.38125 z m 4.7626,-6.35 h -0.7938 v -2.38125 -2.38125 h -0.7938 -0.7937 v -2.38125 -2.38125 h 0.7937 0.7938 v 2.38125 2.38125 h 0.7938 0.7937 v 2.38125 2.38125 z m 4.7624,-1.5875 h -0.7937 v -2.38125 -2.38125 h 0.7937 0.7938 v 2.38125 2.38125 z m 4.7625,0 h -0.7937 v -2.38125 -2.38125 H 1016.7938 1016 v -2.38125 -2.38125 h -0.7938 -0.7937 v -2.38125 -2.38125 h -0.7937 -0.7938 v -2.38125 -2.38125 h -0.7938 -0.7937 v -2.38125 -2.38125 h 0.7937 0.7938 v 2.38125 2.38125 h 0.7938 0.7937 v 2.38125 2.38125 h 0.7937 0.7938 v 2.38125 2.38125 h 0.7938 0.7937 v 2.38125 2.38125 h 0.7937 0.7938 v 2.38125 2.38125 z m -28.57495,-69.85 h -0.79375 v -2.38125 -2.38125 h -0.79375 -0.79375 v -2.38125 -2.38125 h -0.79375 -0.79375 v -2.38125 -2.38125 h 0.79375 0.79375 v 2.38125 2.38125 h 0.79375 0.79375 v 2.38125 2.38125 h 0.79375 0.79375 v 2.38125 2.38125 z m -11.1125,-1.5875 H 977.9 v -2.38125 -2.38125 h -0.79375 -0.79375 v -2.38125 -2.38125 h 0.79375 0.79375 v 2.38125 2.38125 h 0.79375 0.79375 v 2.38125 2.38125 z m -530.225,61.9125 H 444.5 v -9.525 -9.525 h -4.7625 -4.7625 v -4.7625 -4.7625 h 12.7 12.7 v 4.7625 4.7625 h -3.96875 -3.96875 v 9.525 9.525 z m -1.5875,-1.5875 h 0.79375 v -2.38125 -2.38125 h 0.79375 0.79375 v 2.38125 2.38125 h 0.79375 0.79375 v -8.73125 -8.73125 h -2.38125 -2.38125 v 8.73125 8.73125 z m 0.79375,-19.05 h 11.1125 v -0.79375 -0.79375 h -3.175 -3.175 v -0.79375 -0.79375 h 3.175 3.175 v -1.5875 -1.5875 H 447.675 436.5625 v 0.79375 0.79375 h 3.175 3.175 v 0.79375 0.79375 h -3.175 -3.175 v 1.5875 1.5875 z m 19.05,20.6375 h -4.7625 v -14.2875 -14.2875 h 4.7625 4.7625 v 4.7625 4.7625 h 3.96875 3.96875 v -4.7625 -4.7625 h 4.7625 4.7625 v 14.2875 14.2875 h -2.38125 -2.38125 v -0.79375 -0.79375 H 483.39375 482.6 v 0.79375 0.79375 h -1.5875 -1.5875 v -5.55625 -5.55625 h -3.96875 -3.96875 v 5.55625 5.55625 z m -2.38125,-1.5875 h 0.79375 v -3.175 -3.175 h 0.79375 0.79375 v 3.175 3.175 h 1.5875 1.5875 v -12.7 -12.7 h -0.79375 -0.79375 v 3.175 3.175 h -0.79375 -0.79375 v -3.175 -3.175 h -1.5875 -1.5875 v 12.7 12.7 z m 17.4625,0 H 482.6 v -2.38125 -2.38125 h 0.79375 0.79375 v 2.38125 2.38125 h 0.79375 0.79375 v -3.175 -3.175 h 0.79375 0.79375 v -9.525 -9.525 h -1.5875 -1.5875 v 3.175 3.175 H 483.39375 482.6 v -3.175 -3.175 h -0.79375 -0.79375 v 12.7 12.7 z m -6.35,-11.1125 h 3.96875 v -2.38125 -2.38125 h -3.96875 -3.96875 v 2.38125 2.38125 z m 27.78125,12.7 h -12.7 v -4.7625 -4.7625 h 0.79375 0.79375 v -4.7625 -4.7625 h -0.79375 -0.79375 v -4.7625 -4.7625 h 12.7 12.7 v 4.7625 4.7625 H 508 500.0625 v 0.79375 0.79375 H 504.03125 508 v 3.175 3.175 h -3.96875 -3.96875 v 0.79375 0.79375 H 508 h 7.9375 v 4.7625 4.7625 z m 0,-1.5875 H 514.35 v -0.79375 -0.79375 h -3.96875 -3.96875 v -0.79375 -0.79375 h 3.96875 3.96875 v -1.5875 -1.5875 H 503.2375 492.125 v 0.79375 0.79375 h 0.79375 0.79375 v 0.79375 0.79375 h -0.79375 -0.79375 v 1.5875 1.5875 z m -7.14375,-7.9375 h 2.38125 v -0.79375 -0.79375 h -0.79375 -0.79375 v -3.175 -3.175 h 0.79375 0.79375 v -0.79375 -0.79375 h -2.38125 -2.38125 v 4.7625 4.7625 z m 6.35,-3.175 h 3.96875 v -1.5875 -1.5875 h -3.96875 -3.96875 v 1.5875 1.5875 z m 0.79375,-7.9375 H 514.35 v -1.5875 -1.5875 H 511.175 508 v -0.79375 -0.79375 h 3.175 3.175 v -0.79375 -0.79375 H 503.2375 492.125 v 1.5875 1.5875 h 3.175 3.175 v 0.79375 0.79375 h -3.175 -3.175 v 0.79375 0.79375 z m -36.5125,-11.1125 h -12.7 v -4.7625 -4.7625 h 0.79375 0.79375 v -4.7625 -4.7625 h -0.79375 -0.79375 v -2.38125 -2.38125 h 0.79375 0.79375 v -0.79375 -0.79375 h -0.79375 -0.79375 v -1.5875 -1.5875 h 12.7 12.7 v 4.7625 4.7625 h -0.79375 -0.79375 v 4.7625 4.7625 h 0.79375 0.79375 v 4.7625 4.7625 z m 0,-1.5875 h 11.1125 v -3.175 -3.175 H 466.725 455.6125 v 3.175 3.175 z m -7.14375,-7.9375 h 2.38125 v -4.7625 -4.7625 H 459.58125 457.2 v 4.7625 4.7625 z m 7.14375,0 h 3.175 v -4.7625 -4.7625 h -3.175 -3.175 v 4.7625 4.7625 z m 7.14375,0 H 476.25 v -4.7625 -4.7625 h -2.38125 -2.38125 v 4.7625 4.7625 z m -7.14375,-11.1125 h 11.1125 v -3.175 -3.175 H 466.725 455.6125 v 0.79375 0.79375 h 3.175 3.175 v 0.79375 0.79375 h -3.175 -3.175 v 1.5875 1.5875 z m 19.84375,20.6375 H 482.6 v -9.525 -9.525 h -0.79375 -0.79375 v -4.7625 -4.7625 h 12.7 12.7 v 4.7625 4.7625 h -7.9375 -7.9375 v 1.5875 1.5875 h 3.96875 3.96875 v 3.175 3.175 h -3.96875 -3.96875 v 4.7625 4.7625 z m -1.5875,-1.5875 h 0.79375 v -2.38125 -2.38125 h 0.79375 0.79375 v 2.38125 2.38125 h 0.79375 0.79375 v -3.96875 -3.96875 h -0.79375 -0.79375 v -3.175 -3.175 h 0.79375 0.79375 v -1.5875 -1.5875 h -2.38125 -2.38125 v 8.73125 8.73125 z m 7.9375,-9.525 h 3.96875 v -1.5875 -1.5875 H 492.91875 488.95 v 1.5875 1.5875 z m 0.79375,-9.525 h 11.1125 v -0.79375 -0.79375 h -3.175 -3.175 v -0.79375 -0.79375 h 3.175 3.175 v -1.5875 -1.5875 H 493.7125 482.6 v 0.79375 0.79375 h 3.175 3.175 v 0.79375 0.79375 h -3.175 -3.175 v 1.5875 1.5875 z"
       style="fill:#1d1207;stroke-width:0.26458332" />
  </g>
</svg>
